<svg width="70" height="70" viewBox="0 0 70 70" fill="none" xmlns="http://www.w3.org/2000/svg">
<path fill-rule="evenodd" clip-rule="evenodd" d="M47.7274 25.4546C47.7274 28.8301 46.3865 32.0673 43.9996 34.4541C41.6128 36.8409 38.3756 38.1818 35.0001 38.1818C31.6246 38.1818 28.3874 36.8409 26.0006 34.4541C23.6137 32.0673 22.2728 28.8301 22.2728 25.4546C22.2728 22.0791 23.6137 18.8419 26.0006 16.455C28.3874 14.0682 31.6246 12.7273 35.0001 12.7273C38.3756 12.7273 41.6128 14.0682 43.9996 16.455C46.3865 18.8419 47.7274 22.0791 47.7274 25.4546ZM41.3637 25.4546C41.3637 27.1423 40.6933 28.7609 39.4999 29.9543C38.3065 31.1478 36.6878 31.8182 35.0001 31.8182C33.3124 31.8182 31.6937 31.1478 30.5003 29.9543C29.3069 28.7609 28.6365 27.1423 28.6365 25.4546C28.6365 23.7668 29.3069 22.1482 30.5003 20.9548C31.6937 19.7614 33.3124 19.0909 35.0001 19.0909C36.6878 19.0909 38.3065 19.7614 39.4999 20.9548C40.6933 22.1482 41.3637 23.7668 41.3637 25.4546Z" fill="white"/>
<path fill-rule="evenodd" clip-rule="evenodd" d="M35 0C15.6705 0 0 15.6705 0 35C0 54.3295 15.6705 70 35 70C54.3295 70 70 54.3295 70 35C70 15.6705 54.3295 0 35 0ZM6.36364 35C6.36364 41.65 8.63227 47.7718 12.4345 52.6336C15.1048 49.127 18.5497 46.2851 22.5 44.3301C26.4503 42.3751 30.7992 41.3598 35.2068 41.3636C39.5574 41.3595 43.8515 42.3485 47.7621 44.2552C51.6726 46.1619 55.0963 48.9361 57.7723 52.3664C60.5292 48.7506 62.3854 44.5302 63.1874 40.0546C63.9894 35.579 63.7141 30.9767 62.3843 26.6286C61.0545 22.2805 58.7084 18.3115 55.5402 15.0501C52.3719 11.7887 48.4726 9.32864 44.1649 7.87344C39.8571 6.41823 35.2647 6.00973 30.7677 6.68173C26.2708 7.35374 21.9984 9.08693 18.3043 11.7379C14.6101 14.3889 11.6003 17.8814 9.52391 21.9265C7.44751 25.9717 6.36421 30.4531 6.36364 35ZM35 63.6364C28.4262 63.6462 22.0508 61.3847 16.9527 57.2346C19.0048 54.2969 21.7361 51.8984 24.9142 50.2431C28.0924 48.5878 31.6234 47.7247 35.2068 47.7273C38.7455 47.7244 42.2338 48.5659 45.382 50.1818C48.5303 51.7977 51.2475 54.1414 53.3082 57.0182C48.1705 61.3031 41.69 63.6457 35 63.6364Z" fill="white"/>
</svg>
