<svg width="21" height="21" viewBox="0 0 21 21" fill="none" xmlns="http://www.w3.org/2000/svg">
<g clip-path="url(#clip0_400_262)">
<path d="M10.5 0C4.70105 0 0 4.70105 0 10.5C0 16.2993 4.70105 21 10.5 21C16.2993 21 21 16.2993 21 10.5C21 4.70105 16.2993 0 10.5 0ZM10.5 19.7082C5.43408 19.7082 1.3125 15.5659 1.3125 10.5C1.3125 5.43404 5.43408 1.31246 10.5 1.31246C15.5659 1.31246 19.6875 5.43406 19.6875 10.5C19.6875 15.5659 15.5659 19.7082 10.5 19.7082ZM14.6905 6.65798L8.52992 12.8572L5.75562 10.083C5.49935 9.82669 5.08395 9.82669 4.82735 10.083C4.57109 10.3392 4.57109 10.7546 4.82735 11.0109L8.07546 14.2593C8.33173 14.5153 8.74714 14.5153 9.00373 14.2593C9.03326 14.2298 9.05855 14.1976 9.08152 14.1642L15.6191 7.58623C15.875 7.32996 15.875 6.91456 15.6191 6.65798C15.3625 6.40172 14.9471 6.40172 14.6905 6.65798Z" fill="#373737"/>
</g>
<defs>
<clipPath id="clip0_400_262">
<rect width="21" height="21" fill="white"/>
</clipPath>
</defs>
</svg>
