<svg width="44" height="50" viewBox="0 0 44 50" fill="none" xmlns="http://www.w3.org/2000/svg">
<path d="M40.8571 28.1253C40.8571 26.8395 40.6116 25.627 40.1205 24.4877C39.6295 23.3484 38.9583 22.3556 38.1071 21.5092C37.256 20.6629 36.2493 19.9874 35.0871 19.4829C33.9249 18.9783 32.7054 18.7342 31.4286 18.7505C30.119 18.7505 28.8996 18.9946 27.7701 19.4829C26.6406 19.9712 25.6421 20.6385 24.7746 21.4848C23.907 22.3312 23.2277 23.3321 22.7366 24.4877C22.2455 25.6433 22 26.8558 22 28.1253C22 29.6227 21.6644 31.0306 20.9933 32.3489C20.3222 33.6672 19.381 34.774 18.1696 35.6692C19.2336 36.2063 20.1912 36.8654 21.0424 37.6467C21.8936 38.4279 22.6302 39.3068 23.2522 40.2834C23.8743 41.2599 24.3408 42.3015 24.6518 43.4083C24.9628 44.5151 25.1265 45.6706 25.1429 46.875H22C22 45.5893 21.7545 44.3767 21.2634 43.2374C20.7723 42.0981 20.1012 41.1053 19.25 40.2589C18.3988 39.4126 17.3921 38.7372 16.2299 38.2326C15.0677 37.7281 13.8482 37.4839 12.5714 37.5002C11.2619 37.5002 10.0424 37.7443 8.91295 38.2326C7.78348 38.7209 6.78497 39.3882 5.91741 40.2345C5.04985 41.0809 4.37054 42.0818 3.87946 43.2374C3.38839 44.393 3.14286 45.6055 3.14286 46.875H0C0 45.6869 0.16369 44.5395 0.491071 43.4327C0.818452 42.326 1.28497 41.2843 1.89062 40.3078C2.49628 39.3312 3.2247 38.4523 4.07589 37.6711C4.92708 36.8898 5.89286 36.2225 6.97321 35.6692C5.7619 34.774 4.82068 33.6672 4.14955 32.3489C3.47842 31.0306 3.14286 29.6227 3.14286 28.1253C3.14286 26.8395 3.38839 25.627 3.87946 24.4877C4.37054 23.3484 5.04167 22.3556 5.89286 21.5092C6.74405 20.6629 7.74256 19.9874 8.88839 19.4829C10.0342 18.9783 11.2619 18.7342 12.5714 18.7505C14.0774 18.7505 15.4933 19.0841 16.8192 19.7514C18.1451 20.4187 19.2582 21.3546 20.1585 22.559C20.7805 21.3383 21.5744 20.2479 22.5402 19.2876C23.506 18.3273 24.6027 17.5379 25.8304 16.9195C24.619 16.0243 23.6778 14.9175 23.0067 13.5992C22.3356 12.2808 22 10.873 22 9.37562C22 8.08983 22.2455 6.87729 22.7366 5.73798C23.2277 4.59867 23.8988 3.60585 24.75 2.75951C25.6012 1.91317 26.5997 1.23772 27.7455 0.733174C28.8914 0.228624 30.119 -0.0155129 31.4286 0.000762928C32.7217 0.000762928 33.9412 0.2449 35.0871 0.733174C36.2329 1.22145 37.2314 1.88875 38.0826 2.7351C38.9338 3.58144 39.6131 4.5824 40.1205 5.73798C40.628 6.89356 40.8735 8.10611 40.8571 9.37562C40.8571 10.873 40.5216 12.2808 39.8504 13.5992C39.1793 14.9175 38.2381 16.0243 37.0268 16.9195C38.0908 17.4566 39.0484 18.1157 39.8996 18.897C40.7507 19.6782 41.4874 20.5571 42.1094 21.5336C42.7314 22.5102 43.1979 23.5518 43.5089 24.6586C43.8199 25.7653 43.9836 26.9209 44 28.1253H40.8571ZM12.5714 34.3752C13.439 34.3752 14.2493 34.2125 15.0022 33.887C15.7552 33.5614 16.4263 33.1139 17.0156 32.5442C17.6049 31.9746 18.0551 31.3154 18.3661 30.5667C18.6771 29.818 18.8408 29.0042 18.8571 28.1253C18.8571 27.2627 18.6935 26.4571 18.3661 25.7084C18.0387 24.9597 17.5885 24.2924 17.0156 23.7065C16.4427 23.1205 15.7798 22.6729 15.0268 22.3637C14.2738 22.0545 13.4554 21.8917 12.5714 21.8754C11.7039 21.8754 10.8936 22.0382 10.1406 22.3637C9.38765 22.6892 8.71652 23.1368 8.12723 23.7065C7.53795 24.2761 7.0878 24.9353 6.77679 25.684C6.46577 26.4327 6.30208 27.2464 6.28571 28.1253C6.28571 28.988 6.4494 29.7936 6.77679 30.5423C7.10417 31.291 7.55432 31.9583 8.12723 32.5442C8.70015 33.1301 9.3631 33.5777 10.1161 33.887C10.869 34.1962 11.6875 34.359 12.5714 34.3752ZM25.1429 9.37562C25.1429 10.2382 25.3065 11.0439 25.6339 11.7926C25.9613 12.5413 26.4115 13.2086 26.9844 13.7945C27.5573 14.3804 28.2202 14.828 28.9732 15.1373C29.7262 15.4465 30.5446 15.6092 31.4286 15.6255C32.2961 15.6255 33.1064 15.4628 33.8594 15.1373C34.6124 14.8117 35.2835 14.3642 35.8728 13.7945C36.4621 13.2248 36.9122 12.5657 37.2232 11.817C37.5342 11.0683 37.6979 10.2545 37.7143 9.37562C37.7143 8.513 37.5506 7.70735 37.2232 6.95866C36.8958 6.20998 36.4457 5.54267 35.8728 4.95674C35.2999 4.37081 34.6369 3.92323 33.8839 3.61399C33.131 3.30475 32.3125 3.14199 31.4286 3.12572C30.561 3.12572 29.7507 3.28847 28.9978 3.61399C28.2448 3.9395 27.5737 4.38709 26.9844 4.95674C26.3951 5.52639 25.9449 6.18556 25.6339 6.93425C25.3229 7.68294 25.1592 8.49673 25.1429 9.37562ZM40.8571 31.2503H44V50H40.8571V31.2503ZM31.4286 31.2503H34.5714V50H31.4286V31.2503Z" fill="#373737"/>
</svg>
