<svg width="202" height="225" viewBox="0 0 202 225" fill="none" xmlns="http://www.w3.org/2000/svg">
<g opacity="0.7">
<path d="M39.8965 13.5875C41.2749 11.9424 41.9533 9.82242 41.7861 7.68269C41.6189 5.54295 40.6195 3.55406 39.0023 2.14297C37.3852 0.73188 35.2792 0.0110936 33.1365 0.135347C30.9939 0.2596 28.9853 1.21899 27.5421 2.80755L13.4166 18.9885C5.40686 28.1675 0.878992 39.8703 0.624935 52.05L0.00175105 81.777C-0.0205031 82.8538 0.169554 83.9245 0.561072 84.9279C0.95259 85.9312 1.5379 86.8476 2.28359 87.6248C3.02927 88.402 3.92073 89.0246 4.90706 89.4573C5.89339 89.8899 6.95527 90.124 8.03208 90.1463C9.10889 90.1685 10.1795 89.9785 11.1829 89.587C12.1863 89.1954 13.1027 88.6101 13.8798 87.8644C14.657 87.1188 15.2797 86.2273 15.7123 85.241C16.145 84.2547 16.3791 83.1928 16.4013 82.116L17.0136 52.3999C17.189 44.0659 20.2889 36.0589 25.771 29.7794L39.8965 13.5875Z" fill="#373737"/>
<path fill-rule="evenodd" clip-rule="evenodd" d="M37.7974 71.3905C38.5316 59.6936 43.696 48.7162 52.2391 40.693C60.7822 32.6699 72.0619 28.2041 83.7818 28.2049H89.8715V20.0051C89.8715 17.1055 91.0234 14.3246 93.0738 12.2742C95.1241 10.2239 97.905 9.07202 100.805 9.07202C103.704 9.07202 106.485 10.2239 108.535 12.2742C110.586 14.3246 111.738 17.1055 111.738 20.0051V28.2049H117.827C129.547 28.2041 140.827 32.6699 149.37 40.693C157.913 48.7162 163.078 59.6936 163.812 71.3905L166.228 110.028C167.149 124.76 172.095 138.956 180.528 151.071C182.271 153.575 183.335 156.488 183.619 159.525C183.902 162.563 183.395 165.622 182.145 168.406C180.896 171.189 178.948 173.602 176.49 175.409C174.032 177.217 171.149 178.357 168.119 178.72L130.871 183.181V194.934C130.871 202.908 127.703 210.555 122.064 216.194C116.426 221.832 108.779 225 100.805 225C92.8306 225 85.1832 221.832 79.5448 216.194C73.9063 210.555 70.7387 202.908 70.7387 194.934V183.181L33.4897 178.709C30.4623 178.345 27.5805 177.205 25.1243 175.398C22.668 173.591 20.7209 171.18 19.4719 168.398C18.223 165.616 17.7148 162.559 17.9967 159.523C18.2786 156.486 19.341 153.575 21.0807 151.071C29.5134 138.956 34.4598 124.76 35.3812 110.028L37.7974 71.4014V71.3905ZM83.7818 44.6045C76.2334 44.6035 68.9683 47.4795 63.4658 52.6469C57.9633 57.8143 54.637 64.8845 54.1642 72.4182L51.7589 111.056C50.6475 128.778 44.6952 145.856 34.5503 160.429C34.4242 160.61 34.3471 160.821 34.3265 161.041C34.3059 161.26 34.3425 161.482 34.4328 161.683C34.523 161.885 34.6638 162.059 34.8415 162.19C35.0192 162.321 35.2277 162.404 35.4468 162.43L76.3036 167.339C92.5829 169.285 109.026 169.285 125.306 167.339L166.162 162.43C166.382 162.404 166.59 162.321 166.768 162.19C166.945 162.059 167.086 161.885 167.176 161.683C167.267 161.482 167.303 161.26 167.283 161.041C167.262 160.821 167.185 160.61 167.059 160.429C156.917 145.855 150.969 128.777 149.861 111.056L147.445 72.4182C146.972 64.8845 143.646 57.8143 138.143 52.6469C132.641 47.4795 125.376 44.6035 117.827 44.6045H83.7818ZM100.805 208.6C93.2608 208.6 87.1383 202.478 87.1383 194.934V186.734H114.471V194.934C114.471 202.478 108.348 208.6 100.805 208.6Z" fill="#373737"/>
<path d="M162.5 2.02031C160.862 3.45006 159.859 5.47178 159.711 7.64091C159.564 9.81004 160.283 11.949 161.713 13.5875L175.838 29.7684C181.319 36.0523 184.415 44.0635 184.585 52.3998L185.208 82.105C185.253 84.2797 186.16 86.3475 187.729 87.8535C189.299 89.3594 191.402 90.1802 193.577 90.1353C195.752 90.0904 197.819 89.1833 199.325 87.6138C200.831 86.0443 201.652 83.9408 201.607 81.766L200.984 52.05C200.73 39.8702 196.202 28.1674 188.192 18.9884L174.067 2.80749C172.637 1.16959 170.615 0.166553 168.446 0.0189376C166.277 -0.128678 164.138 0.591208 162.5 2.02031Z" fill="#373737"/>
</g>
</svg>
