<svg width="379" height="432" viewBox="0 0 379 432" fill="none" xmlns="http://www.w3.org/2000/svg">
<path opacity="0.6" d="M189.5 319.392L267.858 240L251.088 223.008L201.344 272.208V160.608H177.656V272.208L127.912 223.008L111.142 240L189.5 319.392ZM38.2553 432C27.6749 432 18.65 428.224 11.1805 420.672C3.72684 413.12 0 403.976 0 393.24V86.76C0 76.04 3.72684 66.896 11.1805 59.328C18.6342 51.776 27.6591 48 38.2553 48H149.587C147.439 35.76 150.337 24.696 158.28 14.808C166.223 4.936 176.63 0 189.5 0C202.686 0 213.251 4.936 221.194 14.808C229.121 24.696 231.861 35.76 229.413 48H340.745C351.325 48 360.35 51.776 367.819 59.328C375.273 66.88 379 76.024 379 86.76V393.24C379 403.96 375.273 413.104 367.819 420.672C360.366 428.224 351.341 432 340.745 432H38.2553ZM38.2553 408H340.745C344.377 408 347.717 406.464 350.765 403.392C353.797 400.304 355.312 396.92 355.312 393.24V86.76C355.312 83.08 353.797 79.696 350.765 76.608C347.717 73.536 344.377 72 340.745 72H38.2553C34.6232 72 31.2833 73.536 28.2355 76.608C25.2035 79.696 23.6875 83.08 23.6875 86.76V393.24C23.6875 396.92 25.2035 400.304 28.2355 403.392C31.2833 406.464 34.6232 408 38.2553 408ZM189.5 58.608C194.632 58.608 198.872 56.912 202.22 53.52C205.568 50.128 207.25 45.824 207.266 40.608C207.266 35.408 205.584 31.112 202.22 27.72C198.857 24.328 194.617 22.624 189.5 22.608C184.368 22.608 180.128 24.312 176.78 27.72C173.432 31.128 171.75 35.424 171.734 40.608C171.734 45.808 173.416 50.112 176.78 53.52C180.143 56.928 184.383 58.624 189.5 58.608Z" fill="#373737"/>
</svg>
