<svg width="423" height="398" viewBox="0 0 423 398" fill="none" xmlns="http://www.w3.org/2000/svg">
<path opacity="0.7" d="M264.375 159.204C253.359 159.204 243.101 161.277 233.6 165.423C224.099 169.568 215.7 175.234 208.402 182.42C201.104 189.606 195.39 198.105 191.259 207.917C187.128 217.728 185.062 228.024 185.062 238.803C185.062 251.516 182.24 263.47 176.594 274.663C170.949 285.857 163.031 295.254 152.842 302.855C161.792 307.415 169.847 313.012 177.007 319.645C184.167 326.278 190.364 333.741 195.596 342.032C200.829 350.324 204.753 359.168 207.369 368.565C209.985 377.962 211.362 387.774 211.5 398H185.062C185.062 387.083 182.997 376.788 178.866 367.114C174.735 357.441 169.09 349.011 161.93 341.825C154.77 334.639 146.301 328.904 136.525 324.62C126.749 320.336 116.49 318.263 105.75 318.401C94.7344 318.401 84.4761 320.474 74.9751 324.62C65.4741 328.766 57.0747 334.432 49.7769 341.618C42.479 348.804 36.7646 357.302 32.6338 367.114C28.5029 376.926 26.4375 387.221 26.4375 398H0C0 387.912 1.37695 378.169 4.13086 368.772C6.88477 359.375 10.8091 350.531 15.9038 342.239C20.9985 333.948 27.126 326.486 34.2861 319.852C41.4463 313.219 49.5703 307.553 58.6582 302.855C48.4688 295.254 40.5513 285.857 34.9058 274.663C29.2603 263.47 26.4375 251.516 26.4375 238.803C26.4375 227.885 28.5029 217.59 32.6338 207.917C36.7646 198.243 42.4102 189.813 49.5703 182.627C56.7305 175.441 65.1299 169.706 74.7686 165.423C84.4072 161.139 94.7344 159.066 105.75 159.204C118.418 159.204 130.329 162.037 141.482 167.703C152.635 173.369 161.999 181.315 169.572 191.541C174.804 181.176 181.482 171.918 189.606 163.764C197.73 155.611 206.956 148.909 217.283 143.657C207.094 136.057 199.176 126.66 193.531 115.466C187.885 104.272 185.062 92.3189 185.062 79.6052C185.062 68.688 187.128 58.3927 191.259 48.7192C195.39 39.0458 201.035 30.616 208.195 23.4301C215.355 16.2441 223.755 10.5091 233.394 6.22513C243.032 1.94117 253.359 -0.131714 264.375 0.00647776C275.253 0.00647776 285.511 2.07936 295.15 6.22513C304.789 10.3709 313.188 16.0368 320.348 23.2228C327.508 30.4088 333.223 38.9076 337.491 48.7192C341.76 58.5309 343.825 68.8262 343.688 79.6052C343.688 92.3189 340.865 104.272 335.219 115.466C329.574 126.66 321.656 136.057 311.467 143.657C320.417 148.218 328.472 153.814 335.632 160.448C342.792 167.081 348.989 174.543 354.221 182.835C359.454 191.126 363.378 199.971 365.994 209.368C368.61 218.765 369.987 228.576 370.125 238.803H343.688C343.688 227.885 341.622 217.59 337.491 207.917C333.36 198.243 327.715 189.813 320.555 182.627C313.395 175.441 304.926 169.706 295.15 165.423C285.374 161.139 275.115 159.066 264.375 159.204ZM211.5 79.6052C211.5 86.9294 212.877 93.7699 215.631 100.127C218.385 106.484 222.171 112.149 226.991 117.124C231.81 122.099 237.387 125.9 243.721 128.525C250.055 131.151 256.939 132.533 264.375 132.671C271.673 132.671 278.489 131.289 284.823 128.525C291.157 125.761 296.802 121.961 301.759 117.124C306.716 112.288 310.503 106.691 313.119 100.334C315.735 93.9772 317.112 87.0676 317.25 79.6052C317.25 72.281 315.873 65.4405 313.119 59.0836C310.365 52.7268 306.579 47.0609 301.759 42.086C296.94 37.1111 291.363 33.3108 285.029 30.6851C278.695 28.0595 271.811 26.6776 264.375 26.5394C257.077 26.5394 250.261 27.9213 243.927 30.6851C237.593 33.449 231.948 37.2493 226.991 42.086C222.034 46.9227 218.247 52.5195 215.631 58.8764C213.015 65.2332 211.638 72.1428 211.5 79.6052ZM105.75 291.868C113.048 291.868 119.864 290.486 126.198 287.723C132.532 284.959 138.177 281.159 143.134 276.322C148.091 271.485 151.878 265.888 154.494 259.531C157.11 253.175 158.487 246.265 158.625 238.803C158.625 231.478 157.248 224.638 154.494 218.281C151.74 211.924 147.954 206.258 143.134 201.283C138.315 196.308 132.738 192.508 126.404 189.883C120.07 187.257 113.186 185.875 105.75 185.737C98.4521 185.737 91.6362 187.119 85.3022 189.883C78.9683 192.646 73.3228 196.447 68.3657 201.283C63.4087 206.12 59.6221 211.717 57.0059 218.074C54.3896 224.431 53.0127 231.34 52.875 238.803C52.875 246.127 54.252 252.967 57.0059 259.324C59.7598 265.681 63.5464 271.347 68.3657 276.322C73.1851 281.297 78.7617 285.097 85.0957 287.723C91.4297 290.348 98.3145 291.73 105.75 291.868ZM423 344.934H370.125V398H343.688V344.934H290.812V318.401H343.688V265.336H370.125V318.401H423V344.934Z" fill="#3D3D3D"/>
</svg>
