<svg width="526" height="394" viewBox="0 0 526 394" fill="none" xmlns="http://www.w3.org/2000/svg">
<path opacity="0.7" d="M493.125 394C493.125 394 526 394 526 361.167C526 328.333 493.125 229.833 361.625 229.833C230.125 229.833 197.25 328.333 197.25 361.167C197.25 394 230.125 394 230.125 394H493.125ZM230.848 361.167C230.605 361.133 230.364 361.089 230.125 361.035C230.158 352.367 235.615 327.217 255.11 304.562C273.257 283.319 305.146 262.667 361.625 262.667C418.071 262.667 449.96 283.352 468.14 304.562C487.635 327.217 493.059 352.4 493.125 361.035L492.862 361.101C492.709 361.127 492.556 361.149 492.402 361.167H230.848ZM361.625 164.167C379.063 164.167 395.787 157.248 408.117 144.933C420.448 132.618 427.375 115.916 427.375 98.5C427.375 81.0841 420.448 64.3815 408.117 52.0667C395.787 39.7518 379.063 32.8333 361.625 32.8333C344.187 32.8333 327.463 39.7518 315.133 52.0667C302.802 64.3815 295.875 81.0841 295.875 98.5C295.875 115.916 302.802 132.618 315.133 144.933C327.463 157.248 344.187 164.167 361.625 164.167ZM460.25 98.5C460.25 111.435 457.699 124.244 452.743 136.194C447.786 148.145 440.522 159.003 431.363 168.15C422.205 177.297 411.333 184.552 399.367 189.502C387.401 194.452 374.577 197 361.625 197C348.673 197 335.849 194.452 323.883 189.502C311.917 184.552 301.045 177.297 291.887 168.15C282.728 159.003 275.464 148.145 270.507 136.194C265.551 124.244 263 111.435 263 98.5C263 72.3762 273.391 47.3223 291.887 28.85C310.382 10.3777 335.468 0 361.625 0C387.782 0 412.868 10.3777 431.363 28.85C449.859 47.3223 460.25 72.3762 460.25 98.5ZM228.021 239.027C214.87 234.891 201.314 232.172 187.585 230.917C179.87 230.184 172.124 229.823 164.375 229.833C32.875 229.833 0 328.333 0 361.167C0 383.066 10.9474 394 32.875 394H171.476C166.602 383.75 164.172 372.512 164.375 361.167C164.375 328.005 176.769 294.121 200.209 265.819C208.197 256.166 217.501 247.136 228.021 239.027ZM161.745 262.667C142.288 291.864 131.777 326.095 131.5 361.167H32.875C32.875 352.63 38.2665 327.348 57.86 304.562C75.7769 283.68 106.91 263.323 161.745 262.699V262.667ZM49.3125 114.917C49.3125 88.7928 59.7033 63.739 78.1991 45.2667C96.6949 26.7943 121.781 16.4167 147.938 16.4167C174.094 16.4167 199.18 26.7943 217.676 45.2667C236.172 63.739 246.562 88.7928 246.562 114.917C246.562 141.04 236.172 166.094 217.676 184.567C199.18 203.039 174.094 213.417 147.938 213.417C121.781 213.417 96.6949 203.039 78.1991 184.567C59.7033 166.094 49.3125 141.04 49.3125 114.917ZM147.938 49.25C130.5 49.25 113.776 56.1684 101.445 68.4833C89.1147 80.7982 82.1875 97.5008 82.1875 114.917C82.1875 132.333 89.1147 149.035 101.445 161.35C113.776 173.665 130.5 180.583 147.938 180.583C165.375 180.583 182.099 173.665 194.43 161.35C206.76 149.035 213.688 132.333 213.688 114.917C213.688 97.5008 206.76 80.7982 194.43 68.4833C182.099 56.1684 165.375 49.25 147.938 49.25Z" fill="#3D3D3D"/>
</svg>
