<svg width="38" height="38" viewBox="0 0 38 38" fill="none" xmlns="http://www.w3.org/2000/svg">
<path d="M19 19C18.91 19.054 18.4107 19.2789 17.5021 19.6747C16.5935 20.0705 16.0672 20.3224 15.9233 20.4304C16.607 21.456 17.2637 22.3376 17.8935 23.0753C17.7315 23.4351 17.4976 24.2718 17.1918 25.5852C16.8859 26.8987 16.5575 28.41 16.2067 30.1193C15.8558 31.8286 15.6714 32.7192 15.6534 32.7912C15.6354 32.7372 15.4465 32.6652 15.0866 32.5753C14.7268 32.4853 14.3445 32.3189 13.9396 32.076C13.5348 31.8331 13.2694 31.4957 13.1435 31.0639C12.8556 30.0923 12.6127 28.6349 12.4148 26.6918C12.2169 24.7486 12.0639 23.0168 11.956 21.4964C11.848 19.9761 11.7311 19.1349 11.6051 18.973C11.4792 19.027 11.1958 19.1709 10.755 19.4048C10.3142 19.6387 9.85985 19.8456 9.39205 20.0256C8.85227 20.2235 8.11458 20.4934 7.17898 20.8352C6.24337 21.1771 5.50568 21.4515 4.96591 21.6584C4.42614 21.8653 3.82789 22.1127 3.17116 22.4006C2.51444 22.6884 1.98366 22.9808 1.57884 23.2777C1.17401 23.5746 0.863636 23.8759 0.647727 24.1818C0.215909 25.3333 0 29.9394 0 38H38C38 35.9848 37.9505 33.358 37.8516 30.1193C37.7526 26.8807 37.5862 24.9015 37.3523 24.1818C37.1364 23.8759 36.826 23.5746 36.4212 23.2777C36.0163 22.9808 35.4856 22.6884 34.8288 22.4006C34.1721 22.1127 33.5739 21.8653 33.0341 21.6584C32.4943 21.4515 31.7566 21.1771 30.821 20.8352C29.8854 20.4934 29.1477 20.2235 28.608 20.0256C28.1402 19.8456 27.6858 19.6387 27.245 19.4048C26.8042 19.1709 26.5208 19.027 26.3949 18.973C26.2689 19.1349 26.1655 19.9761 26.0845 21.4964C26.0036 23.0168 25.8776 24.7486 25.7067 26.6918C25.5357 28.6349 25.3063 30.0923 25.0185 31.0639C24.8925 31.4957 24.6271 31.8331 24.2223 32.076C23.8175 32.3189 23.4351 32.4853 23.0753 32.5753C22.7154 32.6652 22.5265 32.7372 22.5085 32.7912C21.393 27.3395 20.5923 24.1009 20.1065 23.0753C20.7363 22.3376 21.393 21.456 22.0767 20.4304C21.9328 20.3224 21.4065 20.0705 20.4979 19.6747C19.5893 19.2789 19.09 19.054 19 19ZM19 0C21.5189 0 23.633 0.92661 25.3423 2.77983C25.8281 2.54593 26.3769 2.51894 26.9886 2.69886C27.2225 2.73485 27.4834 2.74384 27.7713 2.72585C28.0592 2.70786 28.3336 2.68537 28.5945 2.65838C28.8554 2.63139 29.1117 2.75734 29.3636 3.03622C29.6155 3.3151 29.8224 3.76941 29.9844 4.39915C30.0563 4.68703 30.1148 4.95241 30.1598 5.19531C30.2048 5.43821 30.2183 5.66761 30.2003 5.88352C30.1823 6.09943 30.1733 6.27936 30.1733 6.4233C30.1733 6.56723 30.1328 6.72917 30.0518 6.90909C29.9709 7.08902 29.9214 7.21946 29.9034 7.30043C29.8854 7.38139 29.8045 7.50734 29.6605 7.67827C29.5166 7.8492 29.4311 7.95265 29.4041 7.98864C29.3771 8.02462 29.2782 8.13258 29.1072 8.3125C28.9363 8.49242 28.8419 8.59138 28.8239 8.60938C28.7339 9.05919 28.5405 9.45502 28.2436 9.79688C27.9467 10.1387 27.6903 10.3097 27.4744 10.3097C27.0786 12.3068 26.089 13.9666 24.5057 15.2891C22.9223 16.6115 21.0871 17.2727 19 17.2727C16.9129 17.2727 15.0777 16.6115 13.4943 15.2891C11.911 13.9666 10.9214 12.3068 10.5256 10.3097C10.3097 10.3097 10.0533 10.1387 9.75639 9.79688C9.45952 9.45502 9.2661 9.05919 9.17614 8.60938C9.15814 8.59138 9.06368 8.49242 8.89276 8.3125C8.72183 8.13258 8.62287 8.02462 8.59588 7.98864C8.56889 7.95265 8.48343 7.8492 8.33949 7.67827C8.19555 7.50734 8.11458 7.38139 8.09659 7.30043C8.0786 7.21946 8.02912 7.08902 7.94815 6.90909C7.86719 6.72917 7.8267 6.56723 7.8267 6.4233C7.8267 6.27936 7.81771 6.09943 7.79972 5.88352C7.78172 5.66761 7.79522 5.43821 7.8402 5.19531C7.88518 4.95241 7.94366 4.68703 8.01562 4.39915C8.17756 3.76941 8.38447 3.3151 8.63636 3.03622C8.88826 2.75734 9.14465 2.63139 9.40554 2.65838C9.66643 2.68537 9.94081 2.70786 10.2287 2.72585C10.5166 2.74384 10.7775 2.73485 11.0114 2.69886C11.6231 2.51894 12.1719 2.54593 12.6577 2.77983C14.367 0.92661 16.4811 0 19 0ZM17.7315 6.04545C17.8395 6.04545 17.9339 6.08594 18.0149 6.1669C18.0959 6.24787 18.1364 6.34233 18.1364 6.45028V7.17898C18.4962 7.14299 18.7841 7.125 19 7.125C19.2159 7.125 19.5038 7.14299 19.8636 7.17898V6.45028C19.8636 6.34233 19.9041 6.24787 19.9851 6.1669C20.0661 6.08594 20.1605 6.04545 20.2685 6.04545H24.1818C23.84 5.43371 23.687 5.01089 23.723 4.77699C23.741 4.59706 23.7725 4.47112 23.8175 4.39915C23.8625 4.32718 23.9119 4.2822 23.9659 4.2642C24.0199 4.24621 24.1098 4.20573 24.2358 4.14276C24.3617 4.07978 24.4787 3.99432 24.5866 3.88636C23.1293 2.15909 21.267 1.29545 19 1.29545C16.733 1.29545 14.8707 2.15909 13.4134 3.88636C13.5213 3.99432 13.6383 4.07978 13.7642 4.14276C13.8902 4.20573 13.9801 4.24621 14.0341 4.2642C14.0881 4.2822 14.1375 4.32718 14.1825 4.39915C14.2275 4.47112 14.259 4.59706 14.277 4.77699C14.313 5.01089 14.16 5.43371 13.8182 6.04545H17.7315ZM12.9545 7.15199C12.7746 7.24195 12.3698 7.40388 11.7401 7.63778C11.6861 7.96165 11.6591 8.29451 11.6591 8.63636C11.6591 10.6515 12.3788 12.3788 13.8182 13.8182C15.2576 15.2576 16.9848 15.9773 19 15.9773C21.0152 15.9773 22.7424 15.2576 24.1818 13.8182C25.6212 12.3788 26.3409 10.6515 26.3409 8.63636C26.3409 8.29451 26.3139 7.96165 26.2599 7.63778C25.6302 7.40388 25.2254 7.24195 25.0455 7.15199V9.95881C25.0455 10.0668 25.005 10.1612 24.924 10.2422C24.843 10.3232 24.7486 10.3636 24.6406 10.3636H20.2685C20.1605 10.3636 20.0661 10.3232 19.9851 10.2422C19.9041 10.1612 19.8636 10.0668 19.8636 9.95881V8.25852C19.5938 8.20455 19.3059 8.17756 19 8.17756C18.6941 8.17756 18.4062 8.20455 18.1364 8.25852V9.95881C18.1364 10.0668 18.0959 10.1612 18.0149 10.2422C17.9339 10.3232 17.8395 10.3636 17.7315 10.3636H13.3594C13.2514 10.3636 13.157 10.3232 13.076 10.2422C12.995 10.1612 12.9545 10.0668 12.9545 9.95881V7.15199ZM23.642 6.90909H21.267C21.1231 6.90909 20.9972 6.96307 20.8892 7.07102C20.7812 7.17898 20.7273 7.30492 20.7273 7.44886V8.96023C20.7273 9.10417 20.7812 9.23011 20.8892 9.33807C20.9972 9.44602 21.1231 9.5 21.267 9.5H23.642C23.786 9.5 23.9119 9.44602 24.0199 9.33807C24.1278 9.23011 24.1818 9.10417 24.1818 8.96023V7.44886C24.1818 7.30492 24.1278 7.17898 24.0199 7.07102C23.9119 6.96307 23.786 6.90909 23.642 6.90909ZM14.358 6.90909C14.214 6.90909 14.0881 6.96307 13.9801 7.07102C13.8722 7.17898 13.8182 7.30492 13.8182 7.44886V8.96023C13.8182 9.10417 13.8722 9.23011 13.9801 9.33807C14.0881 9.44602 14.214 9.5 14.358 9.5H16.733C16.8769 9.5 17.0028 9.44602 17.1108 9.33807C17.2188 9.23011 17.2727 9.10417 17.2727 8.96023V7.44886C17.2727 7.30492 17.2188 7.17898 17.1108 7.07102C17.0028 6.96307 16.8769 6.90909 16.733 6.90909H14.358Z" fill="black"/>
</svg>
