<svg width="19" height="20" viewBox="0 0 19 20" fill="none" xmlns="http://www.w3.org/2000/svg">
<path d="M5.54318 5.5588C5.70079 5.40139 5.91443 5.31297 6.13719 5.31297C6.35995 5.31297 6.5736 5.40139 6.73121 5.5588L9.49954 8.32714L12.2679 5.5588C12.3448 5.47621 12.4376 5.40997 12.5407 5.36403C12.6439 5.31809 12.7552 5.29338 12.868 5.29139C12.9809 5.2894 13.093 5.31016 13.1977 5.35244C13.3023 5.39472 13.3974 5.45764 13.4773 5.53746C13.5571 5.61728 13.62 5.71236 13.6623 5.81703C13.7046 5.9217 13.7253 6.03381 13.7233 6.14668C13.7213 6.25954 13.6966 6.37085 13.6507 6.47396C13.6047 6.57708 13.5385 6.66988 13.4559 6.74683L10.6876 9.51517L13.4559 12.2835C13.6044 12.4429 13.6852 12.6536 13.6814 12.8714C13.6775 13.0892 13.5893 13.2969 13.4353 13.4509C13.2813 13.6049 13.0735 13.6932 12.8558 13.697C12.638 13.7009 12.4272 13.62 12.2679 13.4715L9.49954 10.7032L6.73121 13.4715C6.65425 13.5541 6.56145 13.6204 6.45834 13.6663C6.35523 13.7123 6.24392 13.737 6.13105 13.7389C6.01819 13.7409 5.90607 13.7202 5.80141 13.6779C5.69674 13.6356 5.60166 13.5727 5.52184 13.4929C5.44202 13.4131 5.37909 13.318 5.33681 13.2133C5.29454 13.1086 5.27377 12.9965 5.27577 12.8837C5.27776 12.7708 5.30246 12.6595 5.3484 12.5564C5.39435 12.4533 5.46059 12.3605 5.54318 12.2835L8.31151 9.51517L5.54318 6.74683C5.38576 6.58922 5.29734 6.37557 5.29734 6.15282C5.29734 5.93006 5.38576 5.71641 5.54318 5.5588Z" fill="#373737"/>
<path fill-rule="evenodd" clip-rule="evenodd" d="M4.25104 0.290038C7.73944 -0.0966794 11.2599 -0.0966794 14.7483 0.290038C16.796 0.518678 18.4491 2.13149 18.689 4.19037C19.1037 7.72868 19.1037 11.3029 18.689 14.8412C18.448 16.9001 16.7949 18.5117 14.7483 18.7415C11.2599 19.1282 7.73944 19.1282 4.25104 18.7415C2.20337 18.5117 0.550212 16.9001 0.310364 14.8412C-0.103455 11.303 -0.103455 7.72858 0.310364 4.19037C0.550212 2.13149 2.20449 0.518678 4.25104 0.290038ZM14.5623 1.96001C11.1975 1.58705 7.80184 1.58705 4.43709 1.96001C3.81421 2.02911 3.23281 2.30619 2.78682 2.74648C2.34084 3.18677 2.05631 3.76456 1.97921 4.3865C1.5806 7.79478 1.5806 11.2379 1.97921 14.6462C2.05655 15.2679 2.34118 15.8454 2.78714 16.2855C3.23311 16.7256 3.81437 17.0025 4.43709 17.0715C7.77367 17.4436 11.2257 17.4436 14.5623 17.0715C15.1848 17.0023 15.7658 16.7252 16.2115 16.2852C16.6573 15.8451 16.9417 15.2677 17.019 14.6462C17.4176 11.2379 17.4176 7.79477 17.019 4.3865C16.9415 3.76513 16.6569 3.18799 16.2112 2.74817C15.7655 2.30834 15.1846 2.03149 14.5623 1.96225V1.96001Z" fill="#373737"/>
</svg>
