<svg width="32" height="37" viewBox="0 0 32 37" fill="none" xmlns="http://www.w3.org/2000/svg">
<path d="M16 27.3553L22.616 20.5556L21.2 19.1002L17 23.3141V13.7558H15V23.3141L10.8 19.1002L9.384 20.5556L16 27.3553ZM3.23 37C2.33667 37 1.57467 36.6766 0.944 36.0298C0.314667 35.383 0 34.5998 0 33.6803V7.43083C0 6.51268 0.314667 5.72952 0.944 5.08133C1.57333 4.43452 2.33533 4.11111 3.23 4.11111H12.63C12.4487 3.06278 12.6933 2.11517 13.364 1.26828C14.0347 0.42276 14.9133 0 16 0C17.1133 0 18.0053 0.42276 18.676 1.26828C19.3453 2.11517 19.5767 3.06278 19.37 4.11111H28.77C29.6633 4.11111 30.4253 4.43452 31.056 5.08133C31.6853 5.72815 32 6.51131 32 7.43083V33.6803C32 34.5984 31.6853 35.3816 31.056 36.0298C30.4267 36.6766 29.6647 37 28.77 37H3.23ZM3.23 34.9444H28.77C29.0767 34.9444 29.3587 34.8129 29.616 34.5498C29.872 34.2853 30 33.9955 30 33.6803V7.43083C30 7.11565 29.872 6.82581 29.616 6.56133C29.3587 6.29822 29.0767 6.16667 28.77 6.16667H3.23C2.92333 6.16667 2.64133 6.29822 2.384 6.56133C2.128 6.82581 2 7.11565 2 7.43083V33.6803C2 33.9955 2.128 34.2853 2.384 34.5498C2.64133 34.8129 2.92333 34.9444 3.23 34.9444ZM16 5.01967C16.4333 5.01967 16.7913 4.87441 17.074 4.58389C17.3567 4.29337 17.4987 3.92474 17.5 3.478C17.5 3.03263 17.358 2.66469 17.074 2.37417C16.79 2.08365 16.432 1.9377 16 1.93633C15.5667 1.93633 15.2087 2.08228 14.926 2.37417C14.6433 2.66606 14.5013 3.034 14.5 3.478C14.5 3.92337 14.642 4.292 14.926 4.58389C15.21 4.87578 15.568 5.02104 16 5.01967Z" fill="#373737"/>
</svg>
