<svg width="47" height="42" viewBox="0 0 47 42" fill="none" xmlns="http://www.w3.org/2000/svg">
<path d="M45.1048 29.4707H17.2145C16.8036 29.4707 16.4094 29.6339 16.1189 29.9245C15.8283 30.2151 15.665 30.6092 15.665 31.0202C15.665 31.4311 15.8283 31.8252 16.1189 32.1158C16.4094 32.4064 16.8036 32.5696 17.2145 32.5696H45.1048C45.5158 32.5696 45.9099 32.4064 46.2005 32.1158C46.491 31.8252 46.6543 31.4311 46.6543 31.0202C46.6543 30.6092 46.491 30.2151 46.2005 29.9245C45.9099 29.6339 45.5158 29.4707 45.1048 29.4707Z" fill="#373737"/>
<path d="M15.665 21.7235C15.665 22.1345 15.8283 22.5286 16.1189 22.8192C16.4094 23.1098 16.8036 23.273 17.2145 23.273H45.1048C45.5158 23.273 45.9099 23.1098 46.2005 22.8192C46.491 22.5286 46.6543 22.1345 46.6543 21.7235C46.6543 21.3126 46.491 20.9185 46.2005 20.6279C45.9099 20.3373 45.5158 20.1741 45.1048 20.1741H17.2145C16.8036 20.1741 16.4094 20.3373 16.1189 20.6279C15.8283 20.9185 15.665 21.3126 15.665 21.7235Z" fill="#373737"/>
<path d="M38.907 38.7676H17.2145C16.8036 38.7676 16.4094 38.9308 16.1189 39.2214C15.8283 39.512 15.665 39.9061 15.665 40.317C15.665 40.728 15.8283 41.1221 16.1189 41.4127C16.4094 41.7033 16.8036 41.8665 17.2145 41.8665H38.907C39.3179 41.8665 39.712 41.7033 40.0026 41.4127C40.2932 41.1221 40.4564 40.728 40.4564 40.317C40.4564 39.9061 40.2932 39.512 40.0026 39.2214C39.712 38.9308 39.3179 38.7676 38.907 38.7676Z" fill="#373737"/>
<path d="M21.6925 10.5209C21.6925 10.1099 21.5292 9.7158 21.2386 9.42522C20.9481 9.13463 20.554 8.97139 20.143 8.97139H12.5661V1.54946C12.5661 1.13852 12.4029 0.744408 12.1123 0.453827C11.8217 0.163246 11.4276 0 11.0167 0C10.6057 0 10.2116 0.163246 9.92104 0.453827C9.63046 0.744408 9.46722 1.13852 9.46722 1.54946V8.97139H1.54946C1.13852 8.97139 0.744408 9.13463 0.453827 9.42522C0.163247 9.7158 0 10.1099 0 10.5209C0 10.9318 0.163247 11.3259 0.453827 11.6165C0.744408 11.9071 1.13852 12.0703 1.54946 12.0703H9.46722V20.143C9.46722 20.554 9.63046 20.9481 9.92104 21.2386C10.2116 21.5292 10.6057 21.6925 11.0167 21.6925C11.4276 21.6925 11.8217 21.5292 12.1123 21.2386C12.4029 20.9481 12.5661 20.554 12.5661 20.143V12.0703H20.143C20.554 12.0703 20.9481 11.9071 21.2386 11.6165C21.5292 11.3259 21.6925 10.9318 21.6925 10.5209Z" fill="#373737"/>
</svg>
