<svg width="357" height="339" viewBox="0 0 357 339" fill="none" xmlns="http://www.w3.org/2000/svg">
<path opacity="0.7" d="M357 0H0V107.053H17.85V303.316C17.85 312.78 21.6112 321.856 28.3063 328.548C35.0013 335.24 44.0818 339 53.55 339H303.45C312.918 339 321.999 335.24 328.694 328.548C335.389 321.856 339.15 312.78 339.15 303.316V107.053H357V0ZM35.7 35.6842H321.3V71.3684H35.7V35.6842ZM303.45 303.316H53.55V107.053H303.45V303.316ZM196.35 124.895V217.138L242.582 171.106L267.75 196.263L178.5 285.474L89.25 196.263L114.419 170.927L160.65 217.138V124.895H196.35Z" fill="#373737"/>
</svg>
