<svg width="37" height="37" viewBox="0 0 37 37" fill="none" xmlns="http://www.w3.org/2000/svg">
<path d="M18.4999 26.75V28.4M18.4999 26.75C21.2339 26.75 23.4499 24.902 23.4499 22.625C23.4499 20.348 21.2339 18.5 18.4999 18.5C15.7658 18.5 13.5499 16.652 13.5499 14.375C13.5499 12.098 15.7658 10.25 18.4999 10.25M18.4999 26.75C15.7658 26.75 13.5499 24.902 13.5499 22.625M18.4999 8.60004V10.25M18.4999 10.25C21.2339 10.25 23.4499 12.098 23.4499 14.375" stroke="#373737" stroke-width="3" stroke-linecap="round"/>
<path d="M10.25 4.20772C12.7572 2.75721 15.6034 1.99556 18.5 2.00002C27.6129 2.00002 35 9.38707 35 18.5C35 27.613 27.6129 35 18.5 35C9.38705 35 2 27.613 2 18.5C2 15.4954 2.80355 12.6755 4.2077 10.25" stroke="#373737" stroke-width="3" stroke-linecap="round"/>
</svg>
