<svg width="19" height="19" viewBox="0 0 19 19" fill="none" xmlns="http://www.w3.org/2000/svg">
<path d="M8.67414 2.72656H3.36127C2.73502 2.72656 2.13443 2.97534 1.6916 3.41816C1.24878 3.86099 1 4.46159 1 5.08784V15.7136C1 16.3398 1.24878 16.9404 1.6916 17.3832C2.13443 17.8261 2.73502 18.0748 3.36127 18.0748H15.1676C15.7939 18.0748 16.3945 17.8261 16.8373 17.3832C17.2801 16.9404 17.5289 16.3398 17.5289 15.7136V10.4007" stroke="#373737" stroke-width="1.5" stroke-linecap="round" stroke-linejoin="round"/>
<path d="M15.1675 3.90734L16.2927 5.08797M17.5288 1.5071C17.8435 1.83255 18.0178 2.26863 18.014 2.72136C18.0103 3.17409 17.8288 3.60722 17.5087 3.92741L9.26432 12.1718L5.72241 13.3524L6.90305 9.81052L15.1522 1.49175C15.4422 1.19952 15.8302 1.02521 16.2413 1.00253C16.6524 0.979848 17.0573 1.11041 17.3777 1.36897L17.5288 1.5071Z" stroke="#373737" stroke-width="1.5" stroke-linecap="round" stroke-linejoin="round"/>
</svg>
