<svg width="50" height="47" viewBox="0 0 50 47" fill="none" xmlns="http://www.w3.org/2000/svg">
<path d="M31.25 18.8005C29.9479 18.8005 28.7354 19.0452 27.6123 19.5348C26.4893 20.0244 25.4964 20.6935 24.6338 21.5421C23.7712 22.3907 23.0957 23.3943 22.6074 24.553C22.1191 25.7116 21.875 26.9274 21.875 28.2003C21.875 29.7017 21.5413 31.1133 20.874 32.4351C20.2067 33.757 19.2708 34.8667 18.0664 35.7642C19.1243 36.3028 20.0765 36.9637 20.9229 37.747C21.7692 38.5303 22.5016 39.4116 23.1201 40.3907C23.7386 41.3699 24.2025 42.4143 24.5117 43.524C24.821 44.6337 24.9837 45.7924 25 47H21.875C21.875 45.7108 21.6309 44.495 21.1426 43.3527C20.6543 42.2103 19.987 41.2149 19.1406 40.3663C18.2943 39.5177 17.2933 38.8404 16.1377 38.3345C14.9821 37.8286 13.7695 37.5838 12.5 37.6002C11.1979 37.6002 9.98535 37.8449 8.8623 38.3345C7.73926 38.8241 6.74642 39.4932 5.88379 40.3418C5.02116 41.1904 4.3457 42.194 3.85742 43.3527C3.36914 44.5113 3.125 45.7271 3.125 47H0C0 45.8087 0.16276 44.6582 0.488281 43.5485C0.813802 42.4388 1.27767 41.3944 1.87988 40.4152C2.4821 39.4361 3.20638 38.5548 4.05273 37.7715C4.89909 36.9882 5.85938 36.3191 6.93359 35.7642C5.72917 34.8667 4.79329 33.757 4.12598 32.4351C3.45866 31.1133 3.125 29.7017 3.125 28.2003C3.125 26.9111 3.36914 25.6953 3.85742 24.553C4.3457 23.4106 5.01302 22.4152 5.85938 21.5666C6.70573 20.718 7.69857 20.0407 8.83789 19.5348C9.97721 19.0289 11.1979 18.7841 12.5 18.8005C13.9974 18.8005 15.4053 19.135 16.7236 19.8041C18.042 20.4732 19.1488 21.4115 20.0439 22.6191C20.6624 21.3952 21.4518 20.3018 22.4121 19.339C23.3724 18.3762 24.4629 17.5847 25.6836 16.9646C24.4792 16.067 23.5433 14.9573 22.876 13.6354C22.2087 12.3136 21.875 10.902 21.875 9.40061C21.875 8.1114 22.1191 6.89562 22.6074 5.75328C23.0957 4.61093 23.763 3.61546 24.6094 2.76687C25.4557 1.91827 26.4486 1.24102 27.5879 0.735128C28.7272 0.229233 29.9479 -0.0155542 31.25 0.000764962C32.5358 0.000764962 33.7484 0.245553 34.8877 0.735128C36.027 1.2247 37.0199 1.89379 37.8662 2.74239C38.7126 3.59098 39.388 4.59461 39.8926 5.75328C40.3971 6.91194 40.6413 8.12772 40.625 9.40061C40.625 10.902 40.2913 12.3136 39.624 13.6354C38.9567 14.9573 38.0208 16.067 36.8164 16.9646C37.8743 17.5031 38.8265 18.164 39.6729 18.9473C40.5192 19.7307 41.2516 20.6119 41.8701 21.591C42.4886 22.5702 42.9525 23.6146 43.2617 24.7243C43.571 25.834 43.7337 26.9927 43.75 28.2003H40.625C40.625 26.9111 40.3809 25.6953 39.8926 24.553C39.4043 23.4106 38.737 22.4152 37.8906 21.5666C37.0443 20.718 36.0433 20.0407 34.8877 19.5348C33.7321 19.0289 32.5195 18.7841 31.25 18.8005ZM25 9.40061C25 10.2655 25.1628 11.0733 25.4883 11.824C25.8138 12.5747 26.2614 13.2438 26.8311 13.8313C27.4007 14.4188 28.0599 14.8675 28.8086 15.1776C29.5573 15.4877 30.3711 15.6509 31.25 15.6672C32.1126 15.6672 32.9183 15.504 33.667 15.1776C34.4157 14.8512 35.083 14.4024 35.6689 13.8313C36.2549 13.2601 36.7025 12.5992 37.0117 11.8485C37.321 11.0978 37.4837 10.2818 37.5 9.40061C37.5 8.5357 37.3372 7.7279 37.0117 6.97721C36.6862 6.22653 36.2386 5.55745 35.6689 4.96995C35.0993 4.38246 34.4401 3.93369 33.6914 3.62362C32.9427 3.31356 32.1289 3.15037 31.25 3.13405C30.3874 3.13405 29.5817 3.29724 28.833 3.62362C28.0843 3.95001 27.417 4.39878 26.8311 4.96995C26.2451 5.54113 25.7975 6.20205 25.4883 6.95274C25.179 7.70342 25.0163 8.51938 25 9.40061ZM12.5 34.4669C13.3626 34.4669 14.1683 34.3037 14.917 33.9773C15.6657 33.6509 16.333 33.2021 16.9189 32.631C17.5049 32.0598 17.9525 31.3989 18.2617 30.6482C18.571 29.8975 18.7337 29.0815 18.75 28.2003C18.75 27.3354 18.5872 26.5276 18.2617 25.7769C17.9362 25.0262 17.4886 24.3571 16.9189 23.7696C16.3493 23.1822 15.6901 22.7334 14.9414 22.4233C14.1927 22.1133 13.3789 21.9501 12.5 21.9337C11.6374 21.9337 10.8317 22.0969 10.083 22.4233C9.33431 22.7497 8.66699 23.1985 8.08105 23.7696C7.49512 24.3408 7.04753 25.0017 6.73828 25.7524C6.42904 26.5031 6.26628 27.3191 6.25 28.2003C6.25 29.0652 6.41276 29.873 6.73828 30.6237C7.0638 31.3744 7.51139 32.0435 8.08105 32.631C8.65072 33.2185 9.3099 33.6672 10.0586 33.9773C10.8073 34.2874 11.6211 34.4506 12.5 34.4669ZM50 40.7334H43.75V47H40.625V40.7334H34.375V37.6002H40.625V31.3336H43.75V37.6002H50V40.7334Z" fill="#373737"/>
</svg>
