<svg width="75" height="86" viewBox="0 0 75 86" fill="none" xmlns="http://www.w3.org/2000/svg">
<path d="M74.1548 54.2474L66.3462 46.2199V35.5857C66.3372 28.2367 63.678 21.1523 58.8826 15.7021C54.0872 10.252 47.4964 6.82335 40.3846 6.07922V0H34.6154V6.07922C27.5036 6.82335 20.9128 10.252 16.1174 15.7021C11.3221 21.1523 8.66279 28.2367 8.65385 35.5857V46.2199L0.845192 54.2474C0.304184 54.8034 0.000163377 55.5576 0 56.344V65.2404C0 66.0269 0.303914 66.7812 0.844884 67.3373C1.38585 67.8934 2.11957 68.2059 2.88462 68.2059H23.0769V70.51C23.0142 74.2721 24.3041 77.9257 26.6994 80.7707C29.0947 83.6157 32.427 85.4519 36.0577 85.9275C38.063 86.132 40.0878 85.9027 42.0017 85.2544C43.9156 84.6061 45.6764 83.5531 47.1707 82.1632C48.6651 80.7734 49.8599 79.0774 50.6784 77.1843C51.4968 75.2912 51.9208 73.243 51.9231 71.1713V68.2059H72.1154C72.8804 68.2059 73.6142 67.8934 74.1551 67.3373C74.6961 66.7812 75 66.0269 75 65.2404V56.344C74.9998 55.5576 74.6958 54.8034 74.1548 54.2474ZM46.1538 71.1713C46.1538 73.5308 45.2421 75.7937 43.6192 77.4621C41.9963 79.1305 39.7951 80.0678 37.5 80.0678C35.2049 80.0678 33.0037 79.1305 31.3808 77.4621C29.7579 75.7937 28.8462 73.5308 28.8462 71.1713V68.2059H46.1538V71.1713ZM69.2308 62.2749H5.76923V57.5717L13.5779 49.5442C14.1189 48.9882 14.4229 48.234 14.4231 47.4476V35.5857C14.4231 29.2937 16.8544 23.2595 21.1821 18.8104C25.5099 14.3614 31.3796 11.8619 37.5 11.8619C43.6204 11.8619 49.4901 14.3614 53.8179 18.8104C58.1456 23.2595 60.5769 29.2937 60.5769 35.5857V47.4476C60.5771 48.234 60.8811 48.9882 61.4221 49.5442L69.2308 57.5717V62.2749Z" fill="white"/>
</svg>
