<svg width="30" height="32" viewBox="0 0 30 32" fill="none" xmlns="http://www.w3.org/2000/svg">
<path d="M11.6667 3.42857H30V5.71429H11.6667V3.42857ZM0 4.57143C0 5.47557 0.260662 6.35941 0.749024 7.11118C1.23739 7.86295 1.93151 8.44888 2.74363 8.79488C3.55575 9.14088 4.44937 9.23141 5.31151 9.05502C6.17365 8.87863 6.96558 8.44324 7.58714 7.80392C8.20871 7.16459 8.632 6.35004 8.80349 5.46327C8.97498 4.5765 8.88697 3.65734 8.55058 2.82202C8.21419 1.9867 7.64453 1.27274 6.91365 0.770425C6.18276 0.26811 5.32347 0 4.44444 0C3.26611 0.0013612 2.13642 0.48343 1.30321 1.34044C0.470001 2.19746 0.00132339 3.35943 0 4.57143ZM4.44444 2.28571C4.88396 2.28571 5.3136 2.41977 5.67905 2.67093C6.04449 2.92208 6.32932 3.27906 6.49751 3.69672C6.66571 4.11438 6.70971 4.57396 6.62397 5.01735C6.53822 5.46073 6.32658 5.86801 6.01579 6.18767C5.70501 6.50734 5.30905 6.72503 4.87798 6.81322C4.44691 6.90142 4.00009 6.85615 3.59404 6.68315C3.18798 6.51015 2.84092 6.21719 2.59673 5.8413C2.35255 5.46542 2.22222 5.0235 2.22222 4.57143C2.22288 3.96543 2.45722 3.38444 2.87383 2.95594C3.29043 2.52743 3.85528 2.2864 4.44444 2.28571ZM11.6667 14.8571H30V17.1429H11.6667V14.8571ZM4.44444 20.5714C5.32347 20.5714 6.18276 20.3033 6.91365 19.801C7.64453 19.2987 8.21419 18.5847 8.55058 17.7494C8.88697 16.9141 8.97498 15.9949 8.80349 15.1082C8.632 14.2214 8.20871 13.4068 7.58714 12.7675C6.96558 12.1282 6.17365 11.6928 5.31151 11.5164C4.44937 11.34 3.55575 11.4306 2.74363 11.7766C1.93151 12.1226 1.23739 12.7085 0.749024 13.4603C0.260662 14.212 0 15.0959 0 16C0.00132339 17.212 0.470001 18.374 1.30321 19.231C2.13642 20.088 3.26611 20.5701 4.44444 20.5714ZM4.44444 13.7143C4.88396 13.7143 5.3136 13.8483 5.67905 14.0995C6.04449 14.3507 6.32932 14.7076 6.49751 15.1253C6.66571 15.543 6.70971 16.0025 6.62397 16.4459C6.53822 16.8893 6.32658 17.2966 6.01579 17.6162C5.70501 17.9359 5.30905 18.1536 4.87798 18.2418C4.44691 18.33 4.00009 18.2847 3.59404 18.1117C3.18798 17.9387 2.84092 17.6458 2.59673 17.2699C2.35255 16.894 2.22222 16.4521 2.22222 16C2.22288 15.394 2.45722 14.813 2.87383 14.3845C3.29043 13.956 3.85528 13.715 4.44444 13.7143ZM11.6667 26.2857H30V28.5714H11.6667V26.2857ZM4.44444 32C5.32347 32 6.18276 31.7319 6.91365 31.2296C7.64453 30.7273 8.21419 30.0133 8.55058 29.178C8.88697 28.3427 8.97498 27.4235 8.80349 26.5367C8.632 25.65 8.20871 24.8354 7.58714 24.1961C6.96558 23.5568 6.17365 23.1214 5.31151 22.945C4.44937 22.7686 3.55575 22.8591 2.74363 23.2051C1.93151 23.5511 1.23739 24.1371 0.749024 24.8888C0.260662 25.6406 0 26.5244 0 27.4286C0.00132339 28.6406 0.470001 29.8025 1.30321 30.6596C2.13642 31.5166 3.26611 31.9986 4.44444 32ZM4.44444 25.1429C4.88396 25.1429 5.3136 25.2769 5.67905 25.5281C6.04449 25.7792 6.32932 26.1362 6.49751 26.5539C6.66571 26.9715 6.70971 27.4311 6.62397 27.8745C6.53822 28.3179 6.32658 28.7252 6.01579 29.0448C5.70501 29.3645 5.30905 29.5822 4.87798 29.6704C4.44691 29.7586 4.00009 29.7133 3.59404 29.5403C3.18798 29.3673 2.84092 29.0743 2.59673 28.6984C2.35255 28.3226 2.22222 27.8806 2.22222 27.4286C2.22288 26.8226 2.45722 26.2416 2.87383 25.8131C3.29043 25.3846 3.85528 25.1435 4.44444 25.1429Z" fill="black"/>
</svg>
