<svg width="16" height="19" viewBox="0 0 16 19" fill="none" xmlns="http://www.w3.org/2000/svg">
<path d="M14.6667 18.6667H6.66671C6.31309 18.6667 5.97395 18.5262 5.7239 18.2761C5.47385 18.0261 5.33337 17.687 5.33337 17.3333V15.3333H6.66671V17.3333H14.6667V1.33333H6.66671V3.33333H5.33337V1.33333C5.33337 0.979711 5.47385 0.640573 5.7239 0.390524C5.97395 0.140476 6.31309 0 6.66671 0H14.6667C15.0203 0 15.3595 0.140476 15.6095 0.390524C15.8596 0.640573 16 0.979711 16 1.33333V17.3333C16 17.687 15.8596 18.0261 15.6095 18.2761C15.3595 18.5262 15.0203 18.6667 14.6667 18.6667Z" fill="#373737"/>
<path d="M7.06 12.3933L9.44667 9.99992H0V8.66659H9.44667L7.06 6.27325L8 5.33325L12 9.33325L8 13.3333L7.06 12.3933Z" fill="#373737"/>
</svg>
