<svg width="34" height="39" viewBox="0 0 34 39" fill="none" xmlns="http://www.w3.org/2000/svg">
<path d="M33.6168 24.6006L30.0769 20.9602V16.1377C30.0729 12.805 28.8673 9.59231 26.6934 7.12073C24.5195 4.64916 21.5317 3.09431 18.3077 2.75686V0H15.6923V2.75686C12.4683 3.09431 9.48046 4.64916 7.30656 7.12073C5.13266 9.59231 3.92713 12.805 3.92308 16.1377V20.9602L0.383154 24.6006C0.137897 24.8527 7.40643e-05 25.1947 0 25.5513V29.5858C0 29.9424 0.137774 30.2845 0.383014 30.5367C0.628254 30.7889 0.960871 30.9306 1.30769 30.9306H10.4615V31.9755C10.4331 33.6816 11.0178 35.3384 12.1037 36.6286C13.1896 37.9187 14.7002 38.7514 16.3462 38.9671C17.2552 39.0598 18.1731 38.9559 19.0408 38.6619C19.9084 38.3679 20.7066 37.8904 21.3841 37.2601C22.0615 36.6298 22.6032 35.8607 22.9742 35.0022C23.3452 34.1437 23.5374 33.2148 23.5385 32.2754V30.9306H32.6923C33.0391 30.9306 33.3717 30.7889 33.617 30.5367C33.8622 30.2845 34 29.9424 34 29.5858V25.5513C33.9999 25.1947 33.8621 24.8527 33.6168 24.6006ZM20.9231 32.2754C20.9231 33.3454 20.5098 34.3715 19.774 35.1281C19.0383 35.8847 18.0405 36.3098 17 36.3098C15.9595 36.3098 14.9617 35.8847 14.226 35.1281C13.4902 34.3715 13.0769 33.3454 13.0769 32.2754V30.9306H20.9231V32.2754ZM31.3846 28.241H2.61538V26.1081L6.15531 22.4677C6.40056 22.2156 6.53839 21.8736 6.53846 21.5169V16.1377C6.53846 13.2844 7.64066 10.5479 9.60257 8.53031C11.5645 6.51271 14.2254 5.37923 17 5.37923C19.7746 5.37923 22.4355 6.51271 24.3974 8.53031C26.3593 10.5479 27.4615 13.2844 27.4615 16.1377V21.5169C27.4616 21.8736 27.5994 22.2156 27.8447 22.4677L31.3846 26.1081V28.241Z" fill="black"/>
</svg>
