<svg width="391" height="391" viewBox="0 0 391 391" fill="none" xmlns="http://www.w3.org/2000/svg">
<path opacity="0.7" d="M279.076 337.237L347.012 269.79L326.485 249.262L279.076 295.694L260.015 276.632L239.487 297.649L279.076 337.237ZM58.65 117.3H293.25V78.2H58.65V117.3ZM293.25 391C266.206 391 243.15 381.466 224.082 362.398C205.014 343.331 195.487 320.281 195.5 293.25C195.5 266.206 205.034 243.15 224.102 224.082C243.169 205.014 266.219 195.487 293.25 195.5C320.294 195.5 343.35 205.034 362.418 224.102C381.486 243.169 391.013 266.219 391 293.25C391 320.294 381.466 343.35 362.398 362.418C343.331 381.486 320.281 391.013 293.25 391ZM0 371.45V39.1C0 28.3475 3.8318 19.1395 11.4954 11.4759C19.159 3.81228 28.3605 -0.0130001 39.1 3.31919e-05H312.8C323.552 3.31919e-05 332.761 3.83183 340.424 11.4954C348.088 19.159 351.913 28.3606 351.9 39.1V169.596C345.709 166.664 339.355 164.22 332.839 162.265C326.322 160.31 319.642 158.844 312.8 157.866V39.1H39.1V313.777H157.866C159.495 323.878 162.024 333.49 165.452 342.614C168.879 351.737 173.356 360.372 178.882 368.517L175.95 371.45L146.625 342.125L117.3 371.45L87.975 342.125L58.65 371.45L29.325 342.125L0 371.45ZM58.65 273.7H157.866C158.844 266.858 160.31 260.178 162.265 253.661C164.22 247.145 166.664 240.791 169.596 234.6H58.65V273.7ZM58.65 195.5H197.455C209.837 183.444 224.258 173.91 240.719 166.898C257.18 159.886 274.691 156.387 293.25 156.4H58.65V195.5Z" fill="#373737"/>
</svg>
