<svg width="33" height="32" viewBox="0 0 33 32" fill="none" xmlns="http://www.w3.org/2000/svg">
<path fill-rule="evenodd" clip-rule="evenodd" d="M30.1969 14.5816H26.062C23.8763 14.5816 22.2539 16.2071 22.2539 18.0351C22.2539 19.8632 23.8763 21.4886 26.0604 21.4886H30.2322C30.5484 21.4686 30.685 21.2553 30.6958 21.1264V14.9439C30.685 14.8149 30.5484 14.6016 30.2322 14.5832H30.1954L30.1969 14.5816ZM30.0834 12.2793C30.1847 12.2793 30.2829 12.2793 30.375 12.2854C31.7103 12.3668 32.8937 13.3752 32.9935 14.7842C32.9996 14.8763 32.9996 14.9761 32.9996 15.0682V21.002C32.9996 21.0941 32.9996 21.1939 32.9935 21.286C32.8937 22.695 31.7103 23.7034 30.3735 23.7863C30.2829 23.7909 30.1847 23.7909 30.0818 23.7909H26.0635C22.7712 23.7909 19.9531 21.2921 19.9531 18.0351C19.9531 14.7781 22.7712 12.2793 26.062 12.2793H30.0834Z" fill="black"/>
<path d="M27.2446 18.0349C27.2446 18.442 27.0829 18.8324 26.795 19.1202C26.5072 19.4081 26.1168 19.5698 25.7097 19.5698C25.3026 19.5698 24.9122 19.4081 24.6244 19.1202C24.3365 18.8324 24.1748 18.442 24.1748 18.0349C24.1748 17.6278 24.3365 17.2374 24.6244 16.9496C24.9122 16.6617 25.3026 16.5 25.7097 16.5C26.1168 16.5 26.5072 16.6617 26.795 16.9496C27.0829 17.2374 27.2446 17.6278 27.2446 18.0349Z" fill="black"/>
<path fill-rule="evenodd" clip-rule="evenodd" d="M30.0837 12.2793C30.524 12.2626 30.9624 12.3466 31.3654 12.5248C31.2011 10.0598 30.7483 8.15962 29.3301 6.73986C28.1805 5.59176 26.7239 5.08218 24.925 4.83967L24.8605 4.832C24.8444 4.81982 24.8281 4.80804 24.8114 4.79669L19.0771 0.994787C18.0824 0.345649 16.9203 0 15.7326 0C14.5448 0 13.3827 0.345649 12.388 0.994787L6.65526 4.79669C6.63807 4.80802 6.62118 4.81979 6.60461 4.832L6.54014 4.83967C4.74126 5.08218 3.28465 5.59176 2.13502 6.73986C0.98693 7.88948 0.477349 9.34609 0.234837 11.145C0 12.8947 0 15.128 0 17.9491V18.121C0 20.9421 0 23.1769 0.234837 24.9252C0.477349 26.724 0.98693 28.1806 2.13502 29.3303C3.28465 30.4784 4.74126 30.9879 6.54014 31.2305C8.28991 31.4653 10.5232 31.4653 13.3443 31.4653H18.1208C20.942 31.4653 23.1767 31.4653 24.925 31.2305C26.7239 30.9879 28.1805 30.4784 29.3301 29.3303C30.7483 27.9105 31.2011 26.0103 31.3654 23.5438C31.0553 23.6819 30.7207 23.7648 30.3738 23.7863C30.2833 23.7909 30.185 23.7909 30.0822 23.7909H29.0369C28.862 25.8492 28.4675 26.9374 27.7016 27.7018C27.0523 28.351 26.1621 28.7409 24.618 28.9481C23.0417 29.1599 20.9619 29.163 18.0349 29.163H13.4302C10.5032 29.163 8.42498 29.1599 6.84558 28.9481C5.30302 28.7409 4.41279 28.351 3.76354 27.7018C3.11428 27.0525 2.72442 26.1623 2.51721 24.6182C2.3054 23.0419 2.30233 20.9621 2.30233 18.0351C2.30233 15.108 2.3054 13.0298 2.51721 11.4504C2.72442 9.90786 3.11428 9.01762 3.76354 8.36837C4.41279 7.71911 5.30302 7.32925 6.84712 7.12204C8.42498 6.91023 10.5032 6.90716 13.4302 6.90716H18.0349C20.9619 6.90716 23.0417 6.91023 24.6195 7.12204C26.1621 7.32925 27.0523 7.71911 27.7016 8.36837C28.4675 9.13274 28.862 10.221 29.0369 12.2793H30.0837ZM13.3443 4.60483H18.1208C18.9144 4.60483 19.6603 4.60483 20.3618 4.60944L17.8047 2.91339C16.5767 2.0999 14.8884 2.0999 13.6605 2.91339L11.1018 4.60944C11.8048 4.60483 12.5507 4.60483 13.3427 4.60483H13.3443Z" fill="black"/>
<path d="M7.29081 10.7441C6.9855 10.7441 6.6927 10.8654 6.47682 11.0813C6.26093 11.2972 6.13965 11.59 6.13965 11.8953C6.13965 12.2006 6.26093 12.4934 6.47682 12.7093C6.6927 12.9252 6.9855 13.0465 7.29081 13.0465H13.4303C13.7357 13.0465 14.0285 12.9252 14.2443 12.7093C14.4602 12.4934 14.5815 12.2006 14.5815 11.8953C14.5815 11.59 14.4602 11.2972 14.2443 11.0813C14.0285 10.8654 13.7357 10.7441 13.4303 10.7441H7.29081Z" fill="black"/>
<path d="M27.2446 18.0349C27.2446 18.442 27.0829 18.8324 26.795 19.1202C26.5072 19.4081 26.1168 19.5698 25.7097 19.5698C25.3026 19.5698 24.9122 19.4081 24.6244 19.1202C24.3365 18.8324 24.1748 18.442 24.1748 18.0349C24.1748 17.6278 24.3365 17.2374 24.6244 16.9496C24.9122 16.6617 25.3026 16.5 25.7097 16.5C26.1168 16.5 26.5072 16.6617 26.795 16.9496C27.0829 17.2374 27.2446 17.6278 27.2446 18.0349Z" fill="black"/>
</svg>
