<svg width="29" height="34" viewBox="0 0 29 34" fill="none" xmlns="http://www.w3.org/2000/svg">
<path d="M25.5828 9.71429L19.3333 3.434V9.71429H25.5828ZM26.5833 12.1429H16.9167V2.42857H2.41667V31.5714H26.5833V12.1429ZM1.20833 0H19.3333L29 9.71429V32.7857C29 33.1078 28.8727 33.4166 28.6461 33.6443C28.4195 33.8721 28.1121 34 27.7917 34H1.20833C0.887863 34 0.580519 33.8721 0.353913 33.6443C0.127306 33.4166 0 33.1078 0 32.7857V1.21429C0 0.892237 0.127306 0.583379 0.353913 0.355656C0.580519 0.127933 0.887863 0 1.20833 0ZM13.2312 22.0903L20.0656 15.2223L21.7742 16.9393L13.2312 25.5243L7.25 19.516L8.95858 17.7966L13.2312 22.0903Z" fill="#373737"/>
</svg>
