<svg width="345" height="440" viewBox="0 0 345 440" fill="none" xmlns="http://www.w3.org/2000/svg">
<g opacity="0.7">
<path d="M35.6757 406.154V101.538H249.73V220H285.405V33.8462C285.396 24.8723 281.634 16.2687 274.946 9.92321C268.257 3.57777 259.189 0.00896038 249.73 0H35.6757C26.2168 0.00896038 17.148 3.57777 10.4596 9.92321C3.77116 16.2687 0.00944472 24.8723 0 33.8462V406.154C0.00944472 415.128 3.77116 423.731 10.4596 430.077C17.148 436.422 26.2168 439.991 35.6757 440H142.703V406.154H35.6757ZM35.6757 33.8462H249.73V67.6923H35.6757V33.8462Z" fill="#373737"/>
<path d="M243.514 237.838C227.638 237.838 214.884 250.473 214.884 265.749V269.143H182.703C178.235 269.143 174.595 272.63 174.595 276.909V284.676H166.487V300.208H182.703V416.701C182.703 429.476 193.69 440 207.027 440H304.325C317.662 440 328.649 429.476 328.649 416.701V300.208H344.865V284.676H336.757V276.909C336.757 272.63 333.116 269.143 328.649 269.143H296.468V265.742C296.468 250.473 283.714 237.838 267.838 237.838H243.514ZM243.514 253.852H267.838C274.357 253.852 279.749 258.946 279.749 265.742V269.143H231.595V265.742C231.595 258.946 236.995 253.852 243.514 253.852ZM198.919 300.208H240.473C241.479 300.309 242.476 300.449 243.514 300.449H267.838C268.876 300.449 269.865 300.309 270.879 300.208H312.433V416.701C312.433 421.073 308.889 424.467 304.325 424.467H207.027C202.462 424.467 198.919 421.073 198.919 416.701V300.208ZM215.135 315.74V408.935H231.352V315.74H215.135ZM247.568 315.74V408.935H263.784V315.74H247.568ZM280 315.74V408.935H296.216V315.74H280Z" fill="#373737"/>
</g>
</svg>
