<svg width="31" height="37" viewBox="0 0 31 37" fill="none" xmlns="http://www.w3.org/2000/svg">
<path d="M31 27H25C25 27 25 27 22 27.0001C19 27.0002 16 27 16 27V29.8462H22H25H31V27Z" fill="#373737"/>
<path d="M3 34.1539V8.53847H21V18.5H24V2.84616C23.9992 2.09154 23.6829 1.36805 23.1205 0.834452C22.558 0.300858 21.7954 0.000753487 21 0H3C2.2046 0.000753487 1.442 0.300858 0.879558 0.834452C0.31712 1.36805 0.000794216 2.09154 0 2.84616V34.1539C0.000794216 34.9085 0.31712 35.632 0.879558 36.1656C1.442 36.6992 2.2046 36.9993 3 37H12V34.1539H3ZM3 2.84616H21V5.69231H3V2.84616Z" fill="#373737"/>
</svg>
