<svg width="33" height="33" viewBox="0 0 33 33" fill="none" xmlns="http://www.w3.org/2000/svg">
<path d="M2 9.25H31M5.625 2H27.375C28.3364 2 29.2584 2.38192 29.9383 3.06174C30.6181 3.74156 31 4.66359 31 5.625V27.375C31 28.3364 30.6181 29.2584 29.9383 29.9383C29.2584 30.6181 28.3364 31 27.375 31H5.625C4.66359 31 3.74156 30.6181 3.06174 29.9383C2.38192 29.2584 2 28.3364 2 27.375V5.625C2 4.66359 2.38192 3.74156 3.06174 3.06174C3.74156 2.38192 4.66359 2 5.625 2Z" stroke="#373737" stroke-width="2.5" stroke-linecap="round" stroke-linejoin="round"/>
<path d="M11 27.5H22.9994" stroke="#373737" stroke-linecap="round"/>
<path d="M21.752 16.736L22.3085 16.1626C22.5276 15.9362 22.7014 15.6674 22.82 15.3716C22.9386 15.0758 22.9997 14.7587 22.9997 14.4385C22.9998 14.1183 22.9388 13.8013 22.8202 13.5054C22.7017 13.2096 22.5279 12.9408 22.3088 12.7143C22.0897 12.4879 21.8296 12.3083 21.5434 12.1857C21.2571 12.0631 20.9503 12 20.6404 12C20.3306 12 20.0237 12.063 19.7374 12.1855C19.4511 12.308 19.191 12.4876 18.9719 12.714L18.4154 13.289C18.4154 13.289 18.4851 14.5103 19.5276 15.5875C20.57 16.6647 21.752 16.7368 21.752 16.7368L16.6395 22.0198C16.293 22.3778 16.1205 22.556 15.9293 22.7102C15.7043 22.8916 15.4605 23.0474 15.2026 23.1745C14.9843 23.2822 14.7518 23.362 14.2876 23.5216L12.3182 24.2005M18.4154 13.2882L13.3029 18.5719C12.9564 18.93 12.7832 19.1082 12.6347 19.3058C12.459 19.5385 12.3083 19.7903 12.1855 20.0568C12.0812 20.2823 12.004 20.5225 11.8487 21.0022L11.1925 23.0373M11.1925 23.0373L11.0328 23.534C10.9953 23.6499 10.9899 23.7742 11.017 23.893C11.0441 24.0119 11.1027 24.1206 11.1863 24.207C11.2698 24.2933 11.375 24.3539 11.4901 24.3819C11.6051 24.4099 11.7254 24.4043 11.8375 24.3656L12.3182 24.2005M11.1925 23.0373L12.3182 24.2005" stroke="#373737"/>
</svg>
