<svg width="31" height="34" viewBox="0 0 31 34" fill="none" xmlns="http://www.w3.org/2000/svg">
<path d="M21.472 23.8577V31.0151H2.38577V2.38577H14.3146V0H2.38577C1.75303 0 1.1462 0.251357 0.698777 0.698777C0.251357 1.1462 0 1.75303 0 2.38577V31.0151C0 31.6478 0.251357 32.2546 0.698777 32.702C1.1462 33.1495 1.75303 33.4008 2.38577 33.4008H21.472C22.1047 33.4008 22.7115 33.1495 23.159 32.702C23.6064 32.2546 23.8577 31.6478 23.8577 31.0151V23.8577H21.472Z" fill="black"/>
<path d="M30.4662 4.48529L26.5297 0.548766C26.1729 0.199056 25.6933 0.00317383 25.1937 0.00317383C24.6941 0.00317383 24.2144 0.199056 23.8576 0.548766L7.15723 17.2492V23.8578H13.7539L30.4543 7.15736C30.804 6.80058 30.9999 6.32091 30.9999 5.82133C30.9999 5.32174 30.804 4.84207 30.4543 4.48529H30.4662ZM12.7638 21.472H9.543V18.2512L20.8039 6.97843L24.0366 10.2111L12.7638 21.472ZM25.7185 8.52918L22.4858 5.29645L25.1937 2.5886L28.4264 5.82133L25.7185 8.52918Z" fill="black"/>
</svg>
