<svg width="47" height="50" viewBox="0 0 47 50" fill="none" xmlns="http://www.w3.org/2000/svg">
<path d="M31.3824 18.7688C30.0748 18.7688 28.8571 19.0132 27.7293 19.5019C26.6015 19.9907 25.6044 20.6586 24.7381 21.5058C23.8718 22.353 23.1935 23.3549 22.7032 24.5116C22.2128 25.6683 21.9677 26.8821 21.9677 28.1528C21.9677 29.6517 21.6326 31.0609 20.9624 32.3805C20.2923 33.7001 19.3525 34.808 18.1429 35.704C19.2054 36.2417 20.1615 36.9015 21.0115 37.6835C21.8614 38.4655 22.5969 39.3452 23.218 40.3227C23.8392 41.3002 24.305 42.3429 24.6155 43.4507C24.9261 44.5586 25.0896 45.7153 25.1059 46.9209H21.9677C21.9677 45.6338 21.7225 44.4201 21.2321 43.2797C20.7418 42.1393 20.0716 41.1455 19.2217 40.2983C18.3718 39.4511 17.3665 38.775 16.2061 38.27C15.0456 37.7649 13.8279 37.5206 12.5529 37.5368C11.2453 37.5368 10.0276 37.7812 8.89984 38.27C7.77204 38.7587 6.775 39.4267 5.90871 40.2739C5.04243 41.121 4.36411 42.123 3.87376 43.2797C3.38341 44.4364 3.13824 45.6501 3.13824 46.9209H0C0 45.7316 0.16345 44.583 0.49035 43.4752C0.817249 42.3673 1.28308 41.3247 1.88785 40.3472C2.49261 39.3697 3.21996 38.4899 4.0699 37.7079C4.91984 36.9259 5.88419 36.2579 6.96296 35.704C5.75343 34.808 4.8136 33.7001 4.14345 32.3805C3.47331 31.0609 3.13824 29.6517 3.13824 28.1528C3.13824 26.8658 3.38341 25.6521 3.87376 24.5116C4.36411 23.3712 5.03425 22.3774 5.88419 21.5302C6.73413 20.6831 7.73118 20.007 8.87533 19.5019C10.0195 18.9969 11.2453 18.7525 12.5529 18.7688C14.0567 18.7688 15.4705 19.1028 16.7945 19.7707C18.1184 20.4387 19.2299 21.3755 20.1288 22.5811C20.75 21.3592 21.5427 20.2676 22.507 19.3064C23.4714 18.3452 24.5665 17.5551 25.7924 16.936C24.5829 16.0399 23.643 14.9321 22.9729 13.6125C22.3027 12.2929 21.9677 10.8836 21.9677 9.38478C21.9677 8.09774 22.2128 6.88401 22.7032 5.74359C23.1935 4.60317 23.8637 3.60938 24.7136 2.76221C25.5636 1.91504 26.5606 1.23893 27.7047 0.73389C28.8489 0.228848 30.0748 -0.015528 31.3824 0.000763674C32.6736 0.000763674 33.8913 0.245139 35.0355 0.73389C36.1796 1.22264 37.1767 1.8906 38.0266 2.73777C38.8765 3.58494 39.5549 4.58688 40.0616 5.74359C40.5682 6.9003 40.8134 8.11403 40.7971 9.38478C40.7971 10.8836 40.462 12.2929 39.7919 13.6125C39.1217 14.9321 38.1819 16.0399 36.9724 16.936C38.0348 17.4736 38.991 18.1334 39.8409 18.9154C40.6908 19.6974 41.4264 20.5772 42.0475 21.5547C42.6686 22.5322 43.1344 23.5749 43.445 24.6827C43.7555 25.7905 43.919 26.9472 43.9353 28.1528H40.7971C40.7971 26.8658 40.5519 25.6521 40.0616 24.5116C39.5712 23.3712 38.9011 22.3774 38.0511 21.5302C37.2012 20.6831 36.196 20.007 35.0355 19.5019C33.875 18.9969 32.6573 18.7525 31.3824 18.7688ZM25.1059 9.38478C25.1059 10.2482 25.2693 11.0547 25.5962 11.8041C25.9231 12.5535 26.3726 13.2215 26.9447 13.808C27.5168 14.3945 28.1788 14.8425 28.9306 15.152C29.6825 15.4616 30.4997 15.6245 31.3824 15.6408C32.2487 15.6408 33.0577 15.4779 33.8096 15.152C34.5615 14.8262 35.2316 14.3782 35.82 13.808C36.4085 13.2378 36.8579 12.578 37.1685 11.8285C37.479 11.0791 37.6425 10.2645 37.6588 9.38478C37.6588 8.52132 37.4954 7.71488 37.1685 6.96547C36.8416 6.21605 36.3921 5.54809 35.82 4.96159C35.248 4.37509 34.586 3.92706 33.8341 3.61752C33.0822 3.30798 32.265 3.14506 31.3824 3.12877C30.5161 3.12877 29.707 3.29169 28.9551 3.61752C28.2033 3.94336 27.5331 4.39138 26.9447 4.96159C26.3563 5.5318 25.9068 6.19161 25.5962 6.94103C25.2857 7.69045 25.1222 8.50503 25.1059 9.38478ZM12.5529 34.4088C13.4192 34.4088 14.2283 34.2459 14.9802 33.9201C15.732 33.5943 16.4022 33.1462 16.9906 32.576C17.579 32.0058 18.0285 31.346 18.3391 30.5966C18.6496 29.8472 18.8131 29.0326 18.8294 28.1528C18.8294 27.2894 18.666 26.4829 18.3391 25.7335C18.0122 24.9841 17.5627 24.3161 16.9906 23.7296C16.4185 23.1431 15.7566 22.6951 15.0047 22.3856C14.2528 22.076 13.4356 21.9131 12.5529 21.8968C11.6867 21.8968 10.8776 22.0597 10.1257 22.3856C9.37385 22.7114 8.7037 23.1594 8.11528 23.7296C7.52686 24.2998 7.07738 24.9597 6.76682 25.7091C6.45627 26.4585 6.29282 27.2731 6.27647 28.1528C6.27647 29.0163 6.43992 29.8227 6.76682 30.5721C7.09372 31.3216 7.54321 31.9895 8.11528 32.576C8.68736 33.1625 9.34933 33.6105 10.1012 33.9201C10.8531 34.2296 11.6703 34.3925 12.5529 34.4088ZM41.459 42.2289L47 47.7762L44.7934 49.9756L39.228 44.4527L33.6625 50L31.4559 47.7762L37.0214 42.2289L31.4559 36.6815L33.6625 34.4822L39.228 40.0295L44.7934 34.4822L47 36.706L41.459 42.2289Z" fill="#373737"/>
</svg>
