<svg width="51" height="46" viewBox="0 0 51 46" fill="none" xmlns="http://www.w3.org/2000/svg">
<path d="M47.2244 0.00470989C46.5945 0.0507236 45.9763 0.199099 45.3938 0.444047H45.386C44.8268 0.666671 42.1683 1.78964 38.1266 3.49183L23.6432 9.61695C13.2505 14.0103 3.03447 18.3367 3.03447 18.3367L3.15612 18.2894C3.15612 18.2894 2.45176 18.5219 1.71602 19.0282C1.26148 19.3187 0.870346 19.6987 0.56629 20.1453C0.205284 20.6772 -0.0850906 21.4909 0.0228188 22.3321C0.199398 23.7546 1.11761 24.6076 1.77684 25.0785C2.44391 25.5553 3.0796 25.7779 3.0796 25.7779H3.09529L12.6757 29.0187C13.1054 30.4037 15.5951 38.6231 16.1935 40.5164C16.5467 41.6472 16.89 42.3545 17.3197 42.8943C17.5277 43.1701 17.771 43.4006 18.0633 43.5858C18.2153 43.6746 18.3773 43.7447 18.546 43.7947L18.4479 43.771C18.4773 43.7789 18.5008 43.8026 18.5224 43.8104C18.6009 43.8321 18.6539 43.84 18.7539 43.8557C20.2705 44.3167 21.4889 43.3711 21.4889 43.3711L21.5576 43.3159L27.214 38.1444L36.6944 45.4476L36.9102 45.5402C38.8859 46.411 40.8871 45.9263 41.9446 45.0713C43.01 44.2104 43.424 43.1091 43.424 43.1091L43.4927 42.9318L50.8187 5.24524C51.0267 4.31534 51.0797 3.44455 50.8501 2.59936C50.6133 1.74399 50.0668 1.00831 49.3178 0.536643C48.6888 0.152695 47.9595 -0.0326269 47.2244 0.00470989ZM47.0262 4.04347C47.0183 4.16758 47.0419 4.15379 46.987 4.39218V4.41385L39.7296 41.7083C39.6982 41.7615 39.6452 41.8777 39.5 41.994C39.347 42.1161 39.2253 42.193 38.5877 41.9388L26.9923 33.0122L19.988 39.423L21.4595 29.9861L40.4045 12.2549C41.1854 11.526 40.9244 11.3723 40.9244 11.3723C40.9793 10.4779 39.7453 11.1103 39.7453 11.1103L15.8561 25.971L15.8482 25.9315L4.39806 22.0603V22.0524L4.36863 22.0465C4.3887 22.0398 4.40835 22.0319 4.42748 22.0228L4.49027 21.9913L4.55109 21.9696C4.55109 21.9696 14.775 17.6432 25.1677 13.2499C30.3709 11.0492 35.6133 8.83284 39.6452 7.12277C42.0364 6.1121 44.43 5.10734 46.8261 4.10848C46.987 4.04543 46.9104 4.04347 47.0262 4.04347Z" fill="#373737"/>
</svg>
