<svg width="18" height="21" viewBox="0 0 18 21" fill="none" xmlns="http://www.w3.org/2000/svg">
<path d="M1.92857 4.50118H0.642857C0.472361 4.50118 0.308848 4.42217 0.188288 4.28152C0.0677294 4.14088 0 3.95013 0 3.75123C0 3.55233 0.0677294 3.36158 0.188288 3.22094C0.308848 3.0803 0.472361 3.00129 0.642857 3.00129H5.78571V0.749946C5.78571 0.551048 5.85344 0.360297 5.974 0.219654C6.09456 0.079012 6.25808 0 6.42857 0H11.5714C11.7419 0 11.9054 0.079012 12.026 0.219654C12.1466 0.360297 12.2143 0.551048 12.2143 0.749946V3.00129H17.3571C17.5276 3.00129 17.6912 3.0803 17.8117 3.22094C17.9323 3.36158 18 3.55233 18 3.75123C18 3.95013 17.9323 4.14088 17.8117 4.28152C17.6912 4.42217 17.5276 4.50118 17.3571 4.50118H16.0714V20.2501C16.0714 20.449 16.0037 20.6397 15.8831 20.7803C15.7626 20.921 15.5991 21 15.4286 21H2.57143C2.40093 21 2.23742 20.921 2.11686 20.7803C1.9963 20.6397 1.92857 20.449 1.92857 20.2501V4.50118ZM10.9286 3.00129V1.50139H7.07143V3.00129H10.9286ZM3.21429 19.5001H14.7857V4.50118H3.21429V19.5001ZM7.07143 16.5003C6.90093 16.5003 6.73742 16.4213 6.61686 16.2807C6.4963 16.14 6.42857 15.9493 6.42857 15.7504V8.25091C6.42857 8.05201 6.4963 7.86126 6.61686 7.72062C6.73742 7.57998 6.90093 7.50096 7.07143 7.50096C7.24192 7.50096 7.40544 7.57998 7.526 7.72062C7.64656 7.86126 7.71429 8.05201 7.71429 8.25091V15.7504C7.71429 15.9493 7.64656 16.14 7.526 16.2807C7.40544 16.4213 7.24192 16.5003 7.07143 16.5003ZM10.9286 16.5003C10.7581 16.5003 10.5946 16.4213 10.474 16.2807C10.3534 16.14 10.2857 15.9493 10.2857 15.7504V8.25091C10.2857 8.05201 10.3534 7.86126 10.474 7.72062C10.5946 7.57998 10.7581 7.50096 10.9286 7.50096C11.0991 7.50096 11.2626 7.57998 11.3831 7.72062C11.5037 7.86126 11.5714 8.05201 11.5714 8.25091V15.7504C11.5714 15.9493 11.5037 16.14 11.3831 16.2807C11.2626 16.4213 11.0991 16.5003 10.9286 16.5003Z" fill="#373737"/>
</svg>
