<svg width="36" height="27" viewBox="0 0 36 27" fill="none" xmlns="http://www.w3.org/2000/svg">
<path d="M33.75 27C33.75 27 36 27 36 24.75C36 22.5 33.75 15.75 24.75 15.75C15.75 15.75 13.5 22.5 13.5 24.75C13.5 27 15.75 27 15.75 27H33.75ZM15.7995 24.75C15.7829 24.7477 15.7664 24.7447 15.75 24.741C15.7522 24.147 16.1257 22.4235 17.46 20.871C18.702 19.4153 20.8845 18 24.75 18C28.6133 18 30.7957 19.4175 32.04 20.871C33.3742 22.4235 33.7455 24.1493 33.75 24.741L33.732 24.7455C33.7215 24.7473 33.711 24.7488 33.7005 24.75H15.7995ZM24.75 11.25C25.9435 11.25 27.0881 10.7759 27.932 9.93198C28.7759 9.08807 29.25 7.94347 29.25 6.75C29.25 5.55653 28.7759 4.41193 27.932 3.56802C27.0881 2.72411 25.9435 2.25 24.75 2.25C23.5565 2.25 22.4119 2.72411 21.568 3.56802C20.7241 4.41193 20.25 5.55653 20.25 6.75C20.25 7.94347 20.7241 9.08807 21.568 9.93198C22.4119 10.7759 23.5565 11.25 24.75 11.25ZM31.5 6.75C31.5 7.63642 31.3254 8.51417 30.9862 9.33311C30.647 10.1521 30.1498 10.8962 29.523 11.523C28.8962 12.1498 28.1521 12.647 27.3331 12.9862C26.5142 13.3254 25.6364 13.5 24.75 13.5C23.8636 13.5 22.9858 13.3254 22.1669 12.9862C21.3479 12.647 20.6038 12.1498 19.977 11.523C19.3502 10.8962 18.853 10.1521 18.5138 9.33311C18.1746 8.51417 18 7.63642 18 6.75C18 4.95979 18.7112 3.2429 19.977 1.97703C21.2429 0.711159 22.9598 0 24.75 0C26.5402 0 28.2571 0.711159 29.523 1.97703C30.7888 3.2429 31.5 4.95979 31.5 6.75ZM15.606 16.38C14.706 16.0966 13.7782 15.9103 12.8385 15.8243C12.3105 15.774 11.7804 15.7493 11.25 15.75C2.25 15.75 0 22.5 0 24.75C0 26.2507 0.74925 27 2.25 27H11.736C11.4024 26.2976 11.2361 25.5275 11.25 24.75C11.25 22.4775 12.0983 20.1555 13.7025 18.216C14.2493 17.5545 14.886 16.9357 15.606 16.38ZM11.07 18C9.73835 20.0009 9.01899 22.3466 9 24.75H2.25C2.25 24.165 2.619 22.4325 3.96 20.871C5.18625 19.44 7.317 18.045 11.07 18.0023V18ZM3.375 7.875C3.375 6.08479 4.08616 4.3679 5.35203 3.10203C6.6179 1.83616 8.33479 1.125 10.125 1.125C11.9152 1.125 13.6321 1.83616 14.898 3.10203C16.1638 4.3679 16.875 6.08479 16.875 7.875C16.875 9.66521 16.1638 11.3821 14.898 12.648C13.6321 13.9138 11.9152 14.625 10.125 14.625C8.33479 14.625 6.6179 13.9138 5.35203 12.648C4.08616 11.3821 3.375 9.66521 3.375 7.875ZM10.125 3.375C8.93153 3.375 7.78693 3.84911 6.94302 4.69302C6.09911 5.53693 5.625 6.68153 5.625 7.875C5.625 9.06847 6.09911 10.2131 6.94302 11.057C7.78693 11.9009 8.93153 12.375 10.125 12.375C11.3185 12.375 12.4631 11.9009 13.307 11.057C14.1509 10.2131 14.625 9.06847 14.625 7.875C14.625 6.68153 14.1509 5.53693 13.307 4.69302C12.4631 3.84911 11.3185 3.375 10.125 3.375Z" fill="black"/>
</svg>
