<svg width="50" height="50" viewBox="0 0 50 50" fill="none" xmlns="http://www.w3.org/2000/svg">
<path d="M35.9375 21.8754C37.8743 21.8754 39.6973 22.2416 41.4062 22.974C43.1152 23.7065 44.6045 24.7156 45.874 26.0013C47.1436 27.2871 48.1445 28.7764 48.877 30.469C49.6094 32.1617 49.9837 33.9846 50 35.9377C50 37.8745 49.6338 39.6974 48.9014 41.4064C48.1689 43.1153 47.1598 44.6046 45.874 45.8741C44.5882 47.1436 43.099 48.1446 41.4062 48.877C39.7135 49.6094 37.8906 49.9837 35.9375 50C34.0007 50 32.1777 49.6338 30.4688 48.9014C28.7598 48.169 27.2705 47.1599 26.001 45.8741C24.7314 44.5883 23.7305 43.0991 22.998 41.4064C22.2656 39.7137 21.8913 37.8908 21.875 35.9377C21.875 34.0009 22.2412 32.178 22.9736 30.469C23.7061 28.7601 24.7152 27.2709 26.001 26.0013C27.2868 24.7318 28.776 23.7309 30.4688 22.9985C32.1615 22.266 33.9844 21.8917 35.9375 21.8754ZM35.9375 46.875C37.4512 46.875 38.8672 46.5902 40.1855 46.0206C41.5039 45.4509 42.6595 44.6697 43.6523 43.6769C44.6452 42.684 45.4264 41.5285 45.9961 40.2101C46.5658 38.8918 46.8587 37.4676 46.875 35.9377C46.875 34.4241 46.5902 33.0081 46.0205 31.6897C45.4508 30.3714 44.6696 29.2158 43.6768 28.223C42.6839 27.2302 41.5283 26.4489 40.21 25.8793C38.8916 25.3096 37.4674 25.0167 35.9375 25.0004C34.4238 25.0004 33.0078 25.2852 31.6895 25.8549C30.3711 26.4245 29.2155 27.2058 28.2227 28.1986C27.2298 29.1914 26.4486 30.347 25.8789 31.6653C25.3092 32.9837 25.0163 34.4078 25 35.9377C25 37.4514 25.2848 38.8674 25.8545 40.1857C26.4242 41.504 27.2054 42.6596 28.1982 43.6524C29.1911 44.6453 30.3467 45.4265 31.665 45.9962C32.9834 46.5658 34.4076 46.8588 35.9375 46.875ZM34.375 37.5002V28.1253H37.5V37.5002H34.375ZM34.375 43.7501V40.6251H37.5V43.7501H34.375ZM22.3145 25.4887C21.2402 26.8558 20.4102 28.3532 19.8242 29.9808C19.2383 31.6084 18.8965 33.2929 18.7988 35.0344C17.9199 35.8156 16.9434 36.4179 15.8691 36.841C14.7949 37.2642 13.6719 37.4839 12.5 37.5002C11.1979 37.5002 9.98535 37.7443 8.8623 38.2326C7.73926 38.7209 6.74642 39.3882 5.88379 40.2345C5.02116 41.0809 4.3457 42.0818 3.85742 43.2374C3.36914 44.393 3.125 45.6055 3.125 46.875H0C0 45.6869 0.16276 44.5395 0.488281 43.4327C0.813802 42.326 1.27767 41.2762 1.87988 40.2834C2.4821 39.2905 3.21452 38.4116 4.07715 37.6467C4.93978 36.8817 5.90006 36.2225 6.95801 35.6692C5.75358 34.7903 4.81771 33.6917 4.15039 32.3733C3.48307 31.055 3.14128 29.639 3.125 28.1253C3.125 26.8395 3.36914 25.627 3.85742 24.4877C4.3457 23.3484 5.01302 22.3556 5.85938 21.5092C6.70573 20.6629 7.69857 19.9874 8.83789 19.4829C9.97721 18.9783 11.1979 18.7342 12.5 18.7505C14.0137 18.7505 15.4297 19.0841 16.748 19.7514C18.0664 20.4187 19.1732 21.3709 20.0684 22.6078C20.6706 21.3872 21.4518 20.2885 22.4121 19.312C23.3724 18.3354 24.4629 17.5379 25.6836 16.9195C24.4792 16.0243 23.5433 14.9175 22.876 13.5992C22.2087 12.2808 21.875 10.873 21.875 9.37562C21.875 8.08983 22.1191 6.87729 22.6074 5.73798C23.0957 4.59867 23.763 3.60585 24.6094 2.75951C25.4557 1.91317 26.4486 1.23772 27.5879 0.733174C28.7272 0.228624 29.9479 -0.0155129 31.25 0.000762928C32.5358 0.000762928 33.7484 0.2449 34.8877 0.733174C36.027 1.22145 37.0199 1.88875 37.8662 2.7351C38.7126 3.58144 39.388 4.5824 39.8926 5.73798C40.3971 6.89356 40.6413 8.10611 40.625 9.37562C40.625 10.6777 40.3809 11.8902 39.8926 13.0133C39.4043 14.1363 38.737 15.1291 37.8906 15.9917C37.0443 16.8543 36.0433 17.5298 34.8877 18.0181C33.7321 18.5063 32.5195 18.7505 31.25 18.7505C30.2083 18.7505 29.2155 18.9132 28.2715 19.2388C27.3275 19.5643 26.4567 20.02 25.6592 20.6059C24.8617 21.1918 24.1781 21.908 23.6084 22.7543C23.0387 23.6007 22.6074 24.5121 22.3145 25.4887ZM25 9.37562C25 10.2382 25.1628 11.0439 25.4883 11.7926C25.8138 12.5413 26.2614 13.2086 26.8311 13.7945C27.4007 14.3804 28.0599 14.828 28.8086 15.1373C29.5573 15.4465 30.3711 15.6092 31.25 15.6255C32.1126 15.6255 32.9183 15.4628 33.667 15.1373C34.4157 14.8117 35.083 14.3642 35.6689 13.7945C36.2549 13.2248 36.7025 12.5657 37.0117 11.817C37.321 11.0683 37.4837 10.2545 37.5 9.37562C37.5 8.513 37.3372 7.70735 37.0117 6.95866C36.6862 6.20998 36.2386 5.54267 35.6689 4.95674C35.0993 4.37081 34.4401 3.92323 33.6914 3.61399C32.9427 3.30475 32.1289 3.14199 31.25 3.12572C30.3874 3.12572 29.5817 3.28847 28.833 3.61399C28.0843 3.9395 27.417 4.38709 26.8311 4.95674C26.2451 5.52639 25.7975 6.18556 25.4883 6.93425C25.179 7.68294 25.0163 8.49673 25 9.37562ZM12.5 34.3752C13.3626 34.3752 14.1683 34.2125 14.917 33.887C15.6657 33.5614 16.333 33.1139 16.9189 32.5442C17.5049 31.9746 17.9525 31.3154 18.2617 30.5667C18.571 29.818 18.7337 29.0042 18.75 28.1253C18.75 27.2627 18.5872 26.4571 18.2617 25.7084C17.9362 24.9597 17.4886 24.2924 16.9189 23.7065C16.3493 23.1205 15.6901 22.6729 14.9414 22.3637C14.1927 22.0545 13.3789 21.8917 12.5 21.8754C11.6374 21.8754 10.8317 22.0382 10.083 22.3637C9.33431 22.6892 8.66699 23.1368 8.08105 23.7065C7.49512 24.2761 7.04753 24.9353 6.73828 25.684C6.42904 26.4327 6.26628 27.2464 6.25 28.1253C6.25 28.988 6.41276 29.7936 6.73828 30.5423C7.0638 31.291 7.51139 31.9583 8.08105 32.5442C8.65072 33.1301 9.3099 33.5777 10.0586 33.887C10.8073 34.1962 11.6211 34.359 12.5 34.3752Z" fill="#373737"/>
</svg>
